<svg width="60" height="60" viewBox="0 0 60 60" fill="none" xmlns="http://www.w3.org/2000/svg">
<path d="M45.7628 10.4101H41.8159V8H39.4059V10.4101H31.64V8H29.23V10.4101H21.4643V8H19.0543V10.4101H14.8272C11.6141 10.4101 9 13.0242 9 16.2372V51.795C9 52.4606 9.53953 53 10.205 53H50.385C51.0504 53 51.59 52.4606 51.59 51.795V16.2372C51.59 13.0242 48.9759 10.4101 45.7628 10.4101ZM11.4101 50.5898V16.2372C11.4101 14.3531 12.943 12.8201 14.8272 12.8201H19.0543V14.4268H21.4643V12.8201H29.23V14.4268H31.64V12.8201H39.4057V14.4268H41.8158V12.8201H45.7626C47.6468 12.8201 49.1798 14.3531 49.1798 16.2372V21.5064H16.6379C15.9724 21.5064 15.4329 22.0458 15.4329 22.7114C15.4329 23.3771 15.9724 23.9165 16.6379 23.9165H49.1799V50.5899H11.4101V50.5898Z" fill="#FCC02A"/>
<path d="M34.1782 29.5566H26.4125C25.7471 29.5566 25.2075 30.096 25.2075 30.7617C25.2075 31.4273 25.7471 31.9667 26.4125 31.9667H32.3599L27.1772 44.217C26.9179 44.8298 27.2045 45.5369 27.8174 45.7962C27.9707 45.861 28.1298 45.8918 28.2864 45.8918C28.7559 45.8918 29.2023 45.6156 29.3968 45.1559L35.2881 31.2311C35.4456 30.8592 35.4061 30.4328 35.1827 30.096C34.9594 29.7592 34.5821 29.5566 34.1782 29.5566Z" fill="#FCC02A"/>
</svg>
