<svg width="60" height="60" viewBox="0 0 60 60" fill="none" xmlns="http://www.w3.org/2000/svg">
<path d="M30 43.9375C36.0406 43.9375 40.9375 39.0406 40.9375 33C40.9375 26.9594 36.0406 22.0625 30 22.0625C23.9594 22.0625 19.0625 26.9594 19.0625 33C19.0625 39.0406 23.9594 43.9375 30 43.9375ZM30 23.625C35.1773 23.625 39.375 27.8227 39.375 33C39.375 38.1773 35.1773 42.375 30 42.375C24.8227 42.375 20.625 38.1773 20.625 33C20.625 27.8227 24.8227 23.625 30 23.625Z" fill="#FCC02A"/>
<path d="M51.875 14.25C51.875 14.25 46.4062 14.25 45.625 14.25C44.8438 14.25 44.3891 14.2531 43.443 13.307C42.4969 12.3609 39.1164 8.98047 39.1164 8.98047C38.9695 8.83359 38.0703 8 37.0312 8C35.9922 8 24.1039 8 22.9688 8C21.8336 8 21.0172 8.84687 20.8703 8.99297C20.8703 8.99297 17.4906 12.3727 16.557 13.3062C15.6234 14.2398 15.1703 14.25 14.375 14.25V11.9062C14.375 11.4742 14.0258 11.125 13.5938 11.125H8.90625C8.47422 11.125 8.125 11.4742 8.125 11.9062V14.25C6.39766 14.25 5 15.6477 5 17.375V48.625C5 50.3523 6.39766 51.75 8.125 51.75H51.875C53.6023 51.75 55 50.3523 55 48.625V17.375C55 15.6477 53.6023 14.25 51.875 14.25ZM9.6875 12.6875H12.8125V14.25C11.8438 14.25 10.6391 14.25 9.6875 14.25V12.6875ZM8.125 15.8125C8.125 15.8125 14.375 15.8125 15.1562 15.8125C15.9375 15.8125 16.7398 15.3336 17.2711 14.8023C17.8023 14.2711 21.3969 10.6766 21.9461 10.1273C22.4953 9.57812 23.3594 9.5625 23.3594 9.5625H36.6406C36.6406 9.5625 37.4797 9.55312 38.0719 10.1453C38.6641 10.7375 42.1461 14.2195 42.7289 14.8023C43.3117 15.3852 44.0625 15.8125 44.8438 15.8125C45.625 15.8125 51.875 15.8125 51.875 15.8125C52.7375 15.8125 53.4375 16.5125 53.4375 17.375V26.75H42.5836C40.2812 22.1234 35.518 18.9375 30 18.9375C24.482 18.9375 19.7188 22.1234 17.4164 26.75H6.5625V17.375C6.5625 16.5125 7.2625 15.8125 8.125 15.8125ZM30 20.5C36.9039 20.5 42.5 26.0961 42.5 33C42.5 39.9047 36.9039 45.5 30 45.5C23.0961 45.5 17.5 39.9047 17.5 33C17.5 26.0961 23.0961 20.5 30 20.5ZM51.875 50.1875H8.125C7.2625 50.1875 6.5625 49.4875 6.5625 48.625V28.3125H16.7547C16.2352 29.7805 15.9375 31.3539 15.9375 33C15.9375 40.7664 22.2336 47.0625 30 47.0625C37.7664 47.0625 44.0625 40.7664 44.0625 33C44.0625 31.3539 43.7648 29.7805 43.2453 28.3125H53.4375V48.625C53.4375 49.4875 52.7375 50.1875 51.875 50.1875Z" fill="#FCC02A"/>
<path d="M30 28.3125C32.5883 28.3125 34.6875 30.4117 34.6875 33C34.6875 33.432 35.0367 33.7812 35.4687 33.7812C35.9008 33.7812 36.25 33.432 36.25 33C36.25 29.5484 33.4516 26.75 30 26.75C29.568 26.75 29.2188 27.0992 29.2188 27.5312C29.2188 27.9633 29.568 28.3125 30 28.3125Z" fill="#FCC02A"/>
<path d="M47.9688 23.625C49.2633 23.625 50.3125 22.575 50.3125 21.2812C50.3125 19.9875 49.2633 18.9375 47.9688 18.9375C46.6742 18.9375 45.625 19.9875 45.625 21.2812C45.625 22.575 46.6742 23.625 47.9688 23.625ZM47.9688 20.5C48.4008 20.5 48.75 20.8492 48.75 21.2812C48.75 21.7133 48.4008 22.0625 47.9688 22.0625C47.5367 22.0625 47.1875 21.7133 47.1875 21.2812C47.1875 20.8492 47.5367 20.5 47.9688 20.5Z" fill="#FCC02A"/>
</svg>
