<svg width="80" height="80" viewBox="0 0 80 80" fill="none" xmlns="http://www.w3.org/2000/svg">
<path d="M36.667 60H13.3336V26.6667L40.0003 43.3333L66.667 26.6667V33.3333H73.3336V20C73.3336 16.3333 70.3336 13.3333 66.667 13.3333H13.3336C9.66699 13.3333 6.66699 16.3333 6.66699 20V60C6.66699 63.6667 9.66699 66.6667 13.3336 66.6667H36.667V60ZM66.667 20L40.0003 36.6667L13.3336 20H66.667Z" fill="#006302"/>
<path d="M43.333 66.466L63.5663 46.2661L70.3996 53.0994L50.1996 73.3327H43.333V66.466Z" fill="#F57C1F"/>
<path d="M71.4 40.9993L75.6667 45.2659C76.3 45.9326 76.3 46.9993 75.6667 47.6659L72.3334 50.9993L65.5 44.3326L68.8334 40.9993C69.1667 40.6326 69.6334 40.466 70.1334 40.4326C70.3723 40.4341 70.6082 40.4853 70.8263 40.5828C71.0443 40.6804 71.2397 40.8222 71.4 40.9993Z" fill="#F57C1F"/>
</svg>
