<svg width="60" height="60" viewBox="0 0 60 60" fill="none" xmlns="http://www.w3.org/2000/svg">
<path d="M54.1901 53.3801H51.5443V6.61987H52.4622C52.9095 6.61987 53.2721 6.25724 53.2721 5.80994C53.2721 5.36263 52.9095 5 52.4622 5H47.2786C46.8313 5 46.4687 5.36263 46.4687 5.80994V6.72786H13.5313V5.80994C13.5313 5.36263 13.1687 5 12.7214 5H7.5378C7.0905 5 6.72786 5.36263 6.72786 5.80994C6.72786 6.25724 7.0905 6.61987 7.5378 6.61987H8.45572V53.3801H5.80994C5.36263 53.3801 5 53.7428 5 54.1901C5 54.6374 5.36263 55 5.80994 55H13.5853C14.0326 55 14.3952 54.6374 14.3952 54.1901C14.3952 53.7428 14.0326 53.3801 13.5853 53.3801H13.5313V16.987H18.8229V30C18.8229 31.811 20.2455 33.2956 22.0317 33.3959L30.797 42.1611C31.276 42.6407 31.9134 42.9049 32.5917 42.9049C33.27 42.9049 33.9073 42.6407 34.3861 42.1614C35.2319 41.3157 35.3522 40.0175 34.7518 39.0401L35.8552 37.7161L36.8448 38.7057C37.0029 38.8639 37.2103 38.943 37.4175 38.943C37.6247 38.943 37.8321 38.8639 37.9902 38.7057L38.6391 38.0568L41.5221 40.9398C41.6802 41.0981 41.8876 41.1771 42.0948 41.1771C42.3021 41.1771 42.5094 41.0981 42.6675 40.9398C42.9838 40.6235 42.9838 40.1108 42.6675 39.7945L39.7847 36.9114L40.4336 36.2625C40.7499 35.9462 40.7499 35.4335 40.4336 35.1172L38.706 33.3896C38.2271 32.9099 37.5897 32.6458 36.9114 32.6458C36.2332 32.6458 35.5958 32.9099 35.1171 33.3892C34.2713 34.235 34.151 35.5332 34.7513 36.5106L33.6479 37.8346L25.6264 29.8131V16.987H46.4687V53.3801H46.4147C45.9674 53.3801 45.6048 53.7428 45.6048 54.1901C45.6048 54.6374 45.9674 55 46.4147 55H54.1901C54.6374 55 55 54.6374 55 54.1901C55 53.7428 54.6374 53.3801 54.1901 53.3801ZM46.4687 8.34773V11.0475H24.6292C24.2903 10.0443 23.3408 9.31965 22.2246 9.31965C21.1084 9.31965 20.159 10.0443 19.8201 11.0475H13.5313V8.34773H46.4687ZM20.4428 13.6623C20.9013 14.1151 21.5308 14.3952 22.2246 14.3952C22.9185 14.3952 23.5479 14.1151 24.0065 13.6623V15.3672H20.4428V13.6623ZM21.3067 11.8575C21.3067 11.3513 21.7185 10.9395 22.2246 10.9395C22.7308 10.9395 23.1425 11.3513 23.1425 11.8575C23.1425 12.3636 22.7308 12.7754 22.2246 12.7754C21.7185 12.7754 21.3067 12.3636 21.3067 11.8575ZM10.0756 53.3801V6.61987H11.9114V53.3801H10.0756ZM13.5313 15.3672V12.6674H18.8229V15.3672H13.5313ZM20.4428 30C20.4428 29.0175 21.2421 28.2181 22.2246 28.2181C23.2071 28.2181 24.0065 29.0175 24.0065 30C24.0065 30.9825 23.2071 31.7819 22.2246 31.7819C21.2421 31.7819 20.4428 30.9825 20.4428 30ZM33.2404 41.0164C33.0674 41.1896 32.837 41.2851 32.5918 41.2851C32.3465 41.2851 32.1162 41.1897 31.9429 41.0161L23.8908 32.964C24.4328 32.6581 24.8828 32.2081 25.1888 31.6661L33.2408 39.7181C33.5986 40.076 33.5986 40.6583 33.2404 41.0164ZM36.2628 34.5343C36.4359 34.3611 36.6662 34.2657 36.9114 34.2657C37.1567 34.2657 37.387 34.361 37.5604 34.5347L38.7155 35.6898L37.4176 36.9877L36.2624 35.8325C35.9046 35.4747 35.9046 34.8924 36.2628 34.5343ZM24.0065 27.1038C23.4879 26.7836 22.8775 26.5983 22.2246 26.5983C21.5717 26.5983 20.9613 26.7836 20.4428 27.1038V16.987H24.0065V27.1038ZM25.6264 15.3672V12.6674H46.4687V15.3672H25.6264ZM48.0886 53.3801V6.61987H49.9244V53.3801H48.0886Z" fill="#FCC02A"/>
</svg>
