<svg width="60" height="60" viewBox="0 0 60 60" fill="none" xmlns="http://www.w3.org/2000/svg">
<path d="M54.5133 35.6749C53.0129 33.6743 51.5125 33.6743 47.8448 35.5915L40.6762 40.0093C39.6759 40.5928 37.4253 40.7595 35.3414 40.7595C35.7583 40.0093 35.5915 39.0924 34.8413 38.0088C33.5077 36.0916 31.257 34.9247 28.8397 34.9247H25.5888C23.8384 34.9247 22.1712 34.4245 20.8376 33.4243C17.8298 31.1685 13.1265 33.623 10.8349 35.0871V33.3409H5V55.0134H10.8349V52.5127H21.6711C23.3382 52.5127 25.0887 52.3459 26.7557 52.2626L37.5919 50.5955C38.0088 50.5955 38.4255 50.5121 38.759 50.4287C39.7592 50.262 40.6762 49.7618 41.5097 49.0116L54.0964 39.009C55.0967 38.1755 55.2635 36.6751 54.5133 35.6749ZM9.16772 53.3462H6.66705V35.008H9.16772V36.2583V52.5127V53.3462ZM53.0962 37.842L40.4261 47.6781L40.3428 47.7614C39.8427 48.3449 39.1758 48.6784 38.4256 48.7617C38.0922 48.845 37.8421 48.845 37.5086 48.845L26.5057 50.5121C24.9219 50.7622 23.2548 50.8455 21.6711 50.8455H10.8349V37.0918C12.8354 35.6748 17.5034 33.0074 19.8373 34.8412C21.421 36.0083 23.4215 36.675 25.5888 36.675H28.8397C30.7569 36.675 32.5074 37.5086 33.591 39.0924C33.9244 39.5925 34.0078 40.0926 33.9244 40.2594C33.6743 40.6762 32.674 40.8428 31.5904 40.9263C31.3586 40.9263 31.1274 40.9263 30.9236 40.9263C30.8343 40.9263 30.7497 40.9263 30.6735 40.9263H22.8381C20.2541 40.9263 18.6703 42.1766 18.6703 44.2605C18.6703 44.7606 19.0037 45.094 19.5038 45.094C20.0039 45.094 20.3373 44.7606 20.3373 44.2605C20.3373 43.8437 20.3373 42.5933 22.838 42.5933H30.5901C30.8401 42.5933 31.1735 42.5933 31.6737 42.5933C31.757 42.5933 31.9237 42.5933 32.0905 42.5933C36.0082 42.6766 39.6758 42.5933 41.593 41.5931L48.7616 37.1752C52.2626 35.4247 52.596 35.8415 53.2629 36.8418C53.4296 37.0918 53.4296 37.592 53.0962 37.842Z" fill="#FCC02A"/>
<path d="M36.0919 28.9231C36.2586 29.0899 36.4252 29.1732 36.6753 29.1732C36.9254 29.1732 37.0921 29.0899 37.2588 28.9231L39.7594 26.4225C40.0928 26.0891 40.0928 25.5889 39.7594 25.2555C39.426 24.922 38.9259 24.9221 38.5924 25.2555L36.0918 27.7561C35.7585 28.0895 35.7585 28.5896 36.0919 28.9231Z" fill="#FCC02A"/>
<path d="M33.5909 25.2554C33.2575 25.5887 33.2575 26.0889 33.5909 26.4224C33.7576 26.5891 33.9243 26.6724 34.1743 26.6724C34.4244 26.6724 34.5911 26.5891 34.7578 26.4224L37.2584 23.9217C37.5918 23.5883 37.5918 23.0882 37.2584 22.7547C36.9251 22.4213 36.4249 22.4213 36.0914 22.7547L33.5909 25.2554Z" fill="#FCC02A"/>
<path d="M22.5047 17.4354V30.8403C22.5047 31.0904 22.588 31.2571 22.7548 31.4238L25.3388 33.9245C25.5055 34.0912 25.6722 34.1745 25.9222 34.1745C26.089 34.1745 26.339 34.0912 26.5057 33.9245L28.923 31.4238C29.0898 31.257 29.1731 31.0904 29.1731 30.8403V30.0067C29.1731 29.7566 29.0898 29.5899 28.923 29.4233L27.8394 28.3397L28.923 27.2561C29.0898 27.0893 29.1731 26.9227 29.1731 26.6726L35.258 32.7575C35.7582 33.1744 36.3416 33.4244 36.9252 33.4244C37.4253 33.4244 37.9254 33.2577 38.3423 32.841L45.2608 25.9224C45.6776 25.5056 45.8443 24.9221 45.8443 24.3387C45.8443 23.7552 45.5942 23.2551 45.1774 22.8383L37.6952 15.3561C38.1262 14.4586 38.3423 13.5074 38.3423 12.5021C38.3423 8.83443 35.3414 5.83362 31.6738 5.83362C30.9852 5.83362 30.2966 5.94928 29.6081 6.17678C28.534 5.43576 27.2351 5 25.8389 5C22.1712 5 19.1704 8.0008 19.1704 11.6685C19.1704 14.1233 20.5158 16.2778 22.5047 17.4354ZM27.506 26.339L26.089 27.7561C25.7556 28.0895 25.7556 28.5896 26.089 28.9231L27.506 30.3402V30.5069L25.8389 32.1741L24.1718 30.5068V18.1702C24.5886 18.2536 25.0053 18.337 25.4221 18.337L26.089 22.3381C26.1723 23.255 26.6724 24.1718 27.3393 24.8387L27.506 25.0055V26.339ZM44.1771 24.4219C44.1771 24.5052 44.1771 24.5887 44.0938 24.672L37.1752 31.5905C37.0085 31.7573 36.6751 31.7573 36.425 31.5072L28.5062 23.5884C28.0894 23.1716 27.756 22.5881 27.6727 22.0047L27.2143 18.8788L27.0059 17.42C27.0059 17.4183 27.0056 17.4166 27.0056 17.4149C27.0058 17.3889 27.0059 17.3628 27.0059 17.3367L26.9901 17.2363C28.1967 18.4302 29.8528 19.1705 31.6739 19.1705C32.174 19.1705 32.5074 18.8371 32.5074 18.337C32.5074 17.8368 32.1739 17.5034 31.6738 17.5034C29.6779 17.5034 27.9463 16.3181 27.1456 14.617C27.2721 14.507 27.4319 14.418 27.6083 14.3655C27.7096 14.3457 27.8159 14.3358 27.9228 14.3358C27.9907 14.3358 28.0595 14.3358 28.1728 14.3358L31.0903 14.7526C31.1225 14.7591 31.1541 14.7629 31.1853 14.7654L34.5079 15.2528C35.0914 15.3361 35.6749 15.6696 36.0917 16.0863L44.0105 24.0051C44.0938 24.0884 44.1771 24.2552 44.1771 24.4219ZM31.6738 7.50067C34.4245 7.50067 36.6751 9.75128 36.6751 12.502C36.6751 13.0855 36.5918 13.669 36.425 14.1692C35.9249 13.9191 35.3414 13.669 34.7579 13.5857L32.3405 13.2523C32.3607 13.1316 32.3808 13.0107 32.3997 12.8887C32.4557 12.5755 32.4898 12.256 32.5013 11.9267C32.5048 11.8422 32.5073 11.7566 32.5073 11.6686C32.5073 11.5626 32.5042 11.4567 32.4992 11.3509C32.4978 11.3226 32.4957 11.2945 32.4939 11.2661C32.489 11.1838 32.4829 11.1016 32.475 11.0196C32.4729 10.9986 32.4707 10.9776 32.4684 10.9566C32.3367 9.70107 31.8617 8.48277 31.0901 7.50077C31.2571 7.50067 31.5071 7.50067 31.6738 7.50067ZM25.8389 6.66715C26.9518 6.66715 27.9826 7.0358 28.816 7.65667C28.848 7.69135 28.8827 7.72378 28.9231 7.75084C29.6999 8.37229 30.251 9.15463 30.5575 10.0179C30.5631 10.0339 30.5684 10.05 30.5739 10.066C30.5956 10.1295 30.6161 10.1935 30.6352 10.2579C30.6437 10.2866 30.6519 10.3155 30.6599 10.3444C30.6747 10.3977 30.6884 10.4513 30.7014 10.5051C30.7098 10.5399 30.7181 10.5746 30.7258 10.6096C30.7367 10.6596 30.7464 10.7099 30.7557 10.7603C30.7626 10.7975 30.7697 10.8345 30.7758 10.8719C30.7841 10.923 30.7907 10.9744 30.7975 11.0258C30.8021 11.0622 30.8075 11.0983 30.8114 11.1348C30.8176 11.1923 30.8218 11.2501 30.826 11.3078C30.8282 11.3386 30.8314 11.3692 30.833 11.4002C30.8378 11.4892 30.8404 11.5787 30.8404 11.6685C30.8404 11.7478 30.8378 11.8271 30.8335 11.9062C30.833 11.9163 30.8323 11.9263 30.8317 11.9362C30.8273 12.0083 30.8216 12.0802 30.8144 12.1519C30.8135 12.1602 30.8128 12.1688 30.8119 12.1771C30.8085 12.2098 30.804 12.2422 30.8001 12.2747C30.7681 12.5272 30.7212 12.765 30.6737 13.0021L28.4231 12.6688C27.8234 12.6143 27.2241 12.7035 26.6944 12.9575C26.6806 12.8074 26.6726 12.6556 26.6726 12.502C26.6726 11.7518 26.8394 11.0016 27.1728 10.3347C27.3395 9.91792 27.1728 9.41779 26.7559 9.25114C26.3391 9.0844 25.839 9.25114 25.6723 9.66795C25.2555 10.5015 25.0055 11.5017 25.0055 12.502C25.0055 13.1596 25.1034 13.7951 25.2829 14.3965C25.0673 14.8927 24.9904 15.4621 25.0888 16.003L25.1721 16.5864C25.1086 16.5799 25.0456 16.5712 24.9828 16.562C24.565 16.4792 24.1598 16.3495 23.755 16.1696C23.711 16.1549 23.6637 16.1439 23.6154 16.1348C21.9814 15.3307 20.8377 13.5994 20.8377 11.6684C20.8376 8.91775 23.0882 6.66715 25.8389 6.66715Z" fill="#FCC02A"/>
</svg>
