<svg width="80" height="80" viewBox="0 0 80 80" fill="none" xmlns="http://www.w3.org/2000/svg">
<path d="M40 13.3334C47.3333 13.3334 53.3333 19.3334 53.3333 26.6668C53.3333 33.6668 46.3333 45.0001 40 53.0001C33.6667 44.6668 26.6667 33.6668 26.6667 26.6668C26.6667 19.3334 32.6667 13.3334 40 13.3334ZM40 6.66675C29 6.66675 20 15.6668 20 26.6668C20 41.6668 40 63.3334 40 63.3334C40 63.3334 60 41.3334 60 26.6668C60 15.6668 51 6.66675 40 6.66675Z" fill="#006302"/>
<path d="M33.333 26.6667C33.333 23 36.333 20 39.9996 20C43.6663 20 46.6663 23 46.6663 26.6667C46.6663 30.3333 43.6663 33.3333 39.9996 33.3333C36.333 33.3333 33.333 30.3333 33.333 26.6667Z" fill="#F57C1F"/>
<path d="M39.9996 76.666C54.6663 76.666 66.6663 70.666 66.6663 63.3327C66.6663 58.9993 62.6663 55.3327 55.9996 52.666L53.9996 55.666C57.6663 57.3327 59.9996 59.3327 59.9996 61.666C59.9996 66.3327 50.9996 69.9993 39.9996 69.9993C28.9996 69.9993 19.9996 66.3327 19.9996 61.666C19.9996 59.3327 22.333 57.3327 25.6663 55.666L23.6663 52.666C17.333 55.3327 13.333 58.9993 13.333 63.3327C13.333 70.666 25.333 76.666 39.9996 76.666Z" fill="#F57C1F"/>
</svg>
