<svg width="60" height="60" viewBox="0 0 60 60" fill="none" xmlns="http://www.w3.org/2000/svg">
<g clip-path="url(#clip0_21_232)">
<path d="M59.0281 38.8769H58.9633V33.2727C58.9633 31.9055 58.4309 30.6201 57.4642 29.6533L56.7877 28.9768L54.3705 20.1137C53.8875 18.3428 52.268 17.1058 50.4323 17.1058H43.4125V13.9309C43.4125 12.8233 42.5115 11.9222 41.4039 11.9222H2.00864C0.901037 11.9222 0 12.8233 0 13.9309V38.8121C0 39.9197 0.901037 40.8207 2.00864 40.8207H5.65335C5.48359 41.1882 5.35607 41.579 5.27728 41.987H3.04536C2.50847 41.987 2.07343 42.4221 2.07343 42.959C2.07343 43.4958 2.50847 43.9309 3.04536 43.9309H5.27728C5.73279 46.2901 7.81218 48.0777 10.3024 48.0777C12.7926 48.0777 14.872 46.2901 15.3275 43.9309H30.3168C30.6599 44.5484 31.3183 44.9676 32.0734 44.9676H40.3672C41.1223 44.9676 41.7807 44.5484 42.1238 43.9309H44.6725C45.128 46.2901 47.2074 48.0777 49.6976 48.0777C52.1878 48.0777 54.2672 46.2901 54.7227 43.9309H59.0281C59.565 43.9309 60 43.4958 60 42.959V39.8488C60 39.3119 59.565 38.8769 59.0281 38.8769ZM54.6455 28.5096L47.6242 28.5097C47.5886 28.5097 47.5594 28.4806 47.5594 28.4449V22.1598H52.8078C52.843 22.1598 52.8778 22.1577 52.9121 22.154L54.6455 28.5096ZM50.4323 19.0497C51.2445 19.0497 51.9745 19.5131 52.3346 20.216H46.5875C46.0506 20.216 45.6156 20.651 45.6156 21.1879V28.4449C45.6156 29.5525 46.5166 30.4536 47.6242 30.4536L55.5153 30.4534L56.0895 31.0279C56.6892 31.6275 57.0194 32.4246 57.0194 33.2727V35.7667H55.9179C55.381 35.7667 54.946 36.2018 54.946 36.7387C54.946 37.2755 55.381 37.7106 55.9179 37.7106H57.0194V38.8769H52.8078C52.7996 38.8769 52.7916 38.8779 52.7834 38.8782C51.9248 38.2273 50.8558 37.8402 49.6976 37.8402C48.5395 37.8402 47.4705 38.2273 46.6118 38.8782C46.6037 38.8779 46.5956 38.8769 46.5875 38.8769H43.4125V19.0497H50.4323ZM44.6725 41.987H42.3758V40.8855C42.3758 40.8636 42.3732 40.8424 42.3726 40.8207H42.4406H45.0486C44.8788 41.1882 44.7513 41.579 44.6725 41.987ZM1.94384 38.8121V32.527H34.9105L33.4597 33.9779C33.0801 34.3576 33.0801 34.9729 33.4597 35.3524C33.6495 35.5422 33.8983 35.637 34.147 35.637C34.3957 35.637 34.6445 35.5422 34.8343 35.3524L37.9445 32.2423C37.9481 32.2387 37.9512 32.2346 37.9547 32.2309C37.9734 32.2117 37.9917 32.192 38.0086 32.1713C38.0186 32.1591 38.0273 32.1464 38.0366 32.1338C38.0462 32.1209 38.0563 32.1083 38.0653 32.0948C38.0749 32.0804 38.0833 32.0655 38.0921 32.0508C38.0995 32.0383 38.1074 32.0261 38.1143 32.0133C38.1223 31.9984 38.129 31.983 38.1362 31.9678C38.1425 31.9543 38.1492 31.941 38.1551 31.9271C38.1613 31.9122 38.1662 31.8971 38.1717 31.8819C38.177 31.8671 38.1827 31.8525 38.1872 31.8374C38.1919 31.8222 38.1952 31.8066 38.1991 31.7911C38.2029 31.7758 38.2073 31.7607 38.2103 31.7453C38.2139 31.727 38.2161 31.7086 38.2187 31.6902C38.2205 31.6773 38.223 31.6644 38.2243 31.6514C38.2306 31.5873 38.2306 31.5229 38.2243 31.4589C38.223 31.4457 38.2205 31.433 38.2187 31.42C38.2161 31.4016 38.2139 31.3832 38.2103 31.365C38.2072 31.3494 38.2029 31.3344 38.1991 31.3192C38.1952 31.3037 38.1919 31.2881 38.1872 31.2728C38.1825 31.2577 38.177 31.243 38.1717 31.2282C38.1662 31.2132 38.1613 31.1979 38.1552 31.1831C38.1495 31.1693 38.1426 31.1559 38.1363 31.1423C38.1292 31.1272 38.1224 31.1119 38.1144 31.097C38.1075 31.0841 38.0996 31.072 38.0922 31.0595C38.0834 31.0447 38.0751 31.0298 38.0654 31.0155C38.0565 31.002 38.0463 30.9894 38.0368 30.9765C38.0274 30.964 38.0187 30.9512 38.0088 30.939C37.9918 30.9183 37.9735 30.8986 37.9549 30.8794C37.9512 30.8756 37.9482 30.8716 37.9446 30.868L34.8345 27.7578C34.4548 27.3784 33.8395 27.3784 33.4599 27.7578C33.0803 28.1375 33.0803 28.7528 33.4599 29.1324L34.9105 30.5831H1.94384V13.9309C1.94384 13.8952 1.973 13.8661 2.00864 13.8661H41.4039C41.4395 13.8661 41.4687 13.8952 41.4687 13.9309V38.8769H13.4121C13.404 38.8769 13.3962 38.8779 13.388 38.8781C12.5295 38.2273 11.4604 37.8402 10.3024 37.8402C9.14436 37.8402 8.07525 38.2273 7.21659 38.8782C7.20829 38.8779 7.20026 38.8769 7.19197 38.8769H2.00864C1.973 38.8769 1.94384 38.8477 1.94384 38.8121ZM30.0648 40.8855V41.987H15.3275C15.2487 41.579 15.1212 41.1882 14.9514 40.8207H30.068C30.0674 40.8424 30.0648 40.8636 30.0648 40.8855ZM10.3024 46.1339C8.55162 46.1339 7.12743 44.7097 7.12743 42.959C7.12743 41.2082 8.55162 39.784 10.3024 39.784C12.0531 39.784 13.4773 41.2082 13.4773 42.959C13.4773 44.7097 12.0531 46.1339 10.3024 46.1339ZM40.3672 43.0238H32.0734C32.0378 43.0238 32.0086 42.9946 32.0086 42.959V40.8855C32.0086 40.8499 32.0378 40.8207 32.0734 40.8207H40.3672C40.4028 40.8207 40.432 40.8499 40.432 40.8855V42.9539C40.432 42.9556 40.4317 42.9573 40.4317 42.959C40.4317 42.9593 40.4317 42.9596 40.4317 42.96C40.4312 42.9951 40.4025 43.0238 40.3672 43.0238ZM49.6976 46.1339C47.9469 46.1339 46.5227 44.7097 46.5227 42.959C46.5227 41.2082 47.9469 39.784 49.6976 39.784C51.4484 39.784 52.8726 41.2082 52.8726 42.959C52.8726 44.7097 51.4484 46.1339 49.6976 46.1339ZM58.0562 41.987H54.7227C54.6439 41.579 54.5164 41.1882 54.3467 40.8207H58.0562V41.987Z" fill="#FCC02A"/>
<path d="M19.374 22.9893C19.374 23.8005 19.3125 24.5251 19.1895 25.1631C19.0664 25.8011 18.8727 26.3411 18.6084 26.7832C18.3441 27.2253 18.0023 27.5625 17.583 27.7949C17.1637 28.0228 16.6602 28.1367 16.0723 28.1367C15.3294 28.1367 14.7142 27.9339 14.2266 27.5283C13.7435 27.1227 13.3812 26.5371 13.1396 25.7715C12.9027 25.0013 12.7842 24.0739 12.7842 22.9893C12.7842 21.9229 12.8913 21.0068 13.1055 20.2412C13.3242 19.471 13.6751 18.8809 14.1582 18.4707C14.6413 18.056 15.2793 17.8486 16.0723 17.8486C16.8242 17.8486 17.444 18.0537 17.9316 18.4639C18.4193 18.8695 18.7816 19.4574 19.0186 20.2275C19.2555 20.9932 19.374 21.9137 19.374 22.9893ZM13.9258 22.9893C13.9258 23.9189 13.9964 24.6937 14.1377 25.3135C14.279 25.9333 14.5068 26.3981 14.8213 26.708C15.1403 27.0133 15.5573 27.166 16.0723 27.166C16.5872 27.166 17.002 27.0133 17.3164 26.708C17.6354 26.4027 17.8656 25.9401 18.0068 25.3203C18.1527 24.7005 18.2256 23.9235 18.2256 22.9893C18.2256 22.0732 18.1549 21.3076 18.0137 20.6924C17.8724 20.0726 17.6445 19.6077 17.3301 19.2979C17.0156 18.9834 16.5964 18.8262 16.0723 18.8262C15.5482 18.8262 15.1289 18.9834 14.8145 19.2979C14.5 19.6077 14.2721 20.0726 14.1309 20.6924C13.9941 21.3076 13.9258 22.0732 13.9258 22.9893Z" fill="#FCC02A"/>
<path d="M23.1298 28V18.004H25.7618C26.9845 18.004 27.8898 18.2513 28.4778 18.746C29.0751 19.2407 29.3738 19.9593 29.3738 20.902C29.3738 21.5367 29.2291 22.0827 28.9398 22.54C28.6505 22.988 28.2211 23.3333 27.6518 23.576C27.0918 23.8187 26.3965 23.94 25.5658 23.94H24.3898V28H23.1298ZM21.9118 26.096V25.186H26.6998V26.096H21.9118ZM21.9118 23.94V22.876H25.1178V23.94H21.9118ZM25.3838 22.876C25.9531 22.876 26.4338 22.8153 26.8258 22.694C27.2271 22.5727 27.5351 22.372 27.7498 22.092C27.9645 21.812 28.0718 21.4293 28.0718 20.944C28.0718 20.3093 27.8758 19.838 27.4838 19.53C27.0918 19.222 26.4805 19.068 25.6498 19.068H24.3898V22.876H25.3838Z" fill="#FCC02A"/>
</g>
<defs>
<clipPath id="clip0_21_232">
<rect width="60" height="60" fill="white"/>
</clipPath>
</defs>
</svg>
