<svg width="60" height="60" viewBox="0 0 60 60" fill="none" xmlns="http://www.w3.org/2000/svg">
<g clip-path="url(#clip0_31_30)">
<path d="M22.904 36.18C22.052 36.18 21.326 36.054 20.726 35.802C20.126 35.55 19.634 35.202 19.25 34.758C18.866 34.314 18.578 33.804 18.386 33.228C18.194 32.64 18.08 32.016 18.044 31.356C18.032 31.032 18.02 30.678 18.008 30.294C18.008 29.898 18.008 29.502 18.008 29.106C18.02 28.71 18.032 28.344 18.044 28.008C18.068 27.348 18.182 26.73 18.386 26.154C18.59 25.566 18.884 25.056 19.268 24.624C19.664 24.192 20.162 23.85 20.762 23.598C21.362 23.346 22.076 23.22 22.904 23.22C23.744 23.22 24.464 23.346 25.064 23.598C25.664 23.85 26.156 24.192 26.54 24.624C26.936 25.056 27.23 25.566 27.422 26.154C27.626 26.73 27.74 27.348 27.764 28.008C27.788 28.344 27.8 28.71 27.8 29.106C27.8 29.502 27.8 29.898 27.8 30.294C27.8 30.678 27.788 31.032 27.764 31.356C27.74 32.016 27.632 32.64 27.44 33.228C27.248 33.804 26.96 34.314 26.576 34.758C26.192 35.202 25.694 35.55 25.082 35.802C24.482 36.054 23.756 36.18 22.904 36.18ZM22.904 34.11C23.684 34.11 24.254 33.858 24.614 33.354C24.986 32.838 25.178 32.142 25.19 31.266C25.214 30.918 25.226 30.57 25.226 30.222C25.226 29.862 25.226 29.502 25.226 29.142C25.226 28.782 25.214 28.44 25.19 28.116C25.178 27.264 24.986 26.58 24.614 26.064C24.254 25.536 23.684 25.272 22.904 25.272C22.136 25.272 21.566 25.536 21.194 26.064C20.834 26.58 20.642 27.264 20.618 28.116C20.618 28.44 20.612 28.782 20.6 29.142C20.6 29.502 20.6 29.862 20.6 30.222C20.612 30.57 20.618 30.918 20.618 31.266C20.642 32.142 20.84 32.838 21.212 33.354C21.584 33.858 22.148 34.11 22.904 34.11ZM30.8101 36C30.5581 36 30.4321 35.88 30.4321 35.64C30.4321 35.568 30.4561 35.502 30.5041 35.442L39.3781 23.742C39.4621 23.634 39.5461 23.55 39.6301 23.49C39.7141 23.43 39.8341 23.4 39.9901 23.4H40.9441C41.1961 23.4 41.3221 23.52 41.3221 23.76C41.3221 23.832 41.2981 23.898 41.2501 23.958L32.3761 35.658C32.2921 35.766 32.2081 35.85 32.1241 35.91C32.0521 35.97 31.9321 36 31.7641 36H30.8101ZM39.4681 36.108C38.6641 36.108 38.0281 35.886 37.5601 35.442C37.0921 34.998 36.8341 34.416 36.7861 33.696C36.7741 33.384 36.7681 33.114 36.7681 32.886C36.7681 32.658 36.7741 32.376 36.7861 32.04C36.8341 31.32 37.0801 30.738 37.5241 30.294C37.9801 29.85 38.6281 29.628 39.4681 29.628C40.3201 29.628 40.9681 29.85 41.4121 30.294C41.8681 30.738 42.1141 31.32 42.1501 32.04C42.1741 32.376 42.1861 32.658 42.1861 32.886C42.1861 33.114 42.1741 33.384 42.1501 33.696C42.1141 34.416 41.8561 34.998 41.3761 35.442C40.9081 35.886 40.2721 36.108 39.4681 36.108ZM39.4681 34.704C39.7321 34.704 39.9361 34.65 40.0801 34.542C40.2361 34.434 40.3501 34.296 40.4221 34.128C40.4941 33.96 40.5301 33.792 40.5301 33.624C40.5541 33.324 40.5661 33.072 40.5661 32.868C40.5661 32.652 40.5541 32.406 40.5301 32.13C40.5181 31.854 40.4341 31.602 40.2781 31.374C40.1221 31.134 39.8521 31.014 39.4681 31.014C39.0961 31.014 38.8321 31.134 38.6761 31.374C38.5201 31.602 38.4301 31.854 38.4061 32.13C38.3941 32.406 38.3881 32.652 38.3881 32.868C38.3881 33.072 38.3941 33.324 38.4061 33.624C38.4301 33.792 38.4721 33.96 38.5321 34.128C38.6041 34.296 38.7121 34.434 38.8561 34.542C39.0121 34.65 39.2161 34.704 39.4681 34.704ZM32.2861 29.736C31.4821 29.736 30.8461 29.526 30.3781 29.106C29.9101 28.686 29.6521 28.116 29.6041 27.396C29.5921 27.084 29.5861 26.814 29.5861 26.586C29.5861 26.346 29.5921 26.058 29.6041 25.722C29.6521 25.002 29.8981 24.42 30.3421 23.976C30.7981 23.532 31.4461 23.31 32.2861 23.31C33.1381 23.31 33.7861 23.532 34.2301 23.976C34.6861 24.42 34.9321 25.002 34.9681 25.722C34.9921 26.058 35.0041 26.346 35.0041 26.586C35.0041 26.814 34.9921 27.084 34.9681 27.396C34.9321 28.116 34.6741 28.686 34.1941 29.106C33.7261 29.526 33.0901 29.736 32.2861 29.736ZM32.2861 28.404C32.5501 28.404 32.7541 28.35 32.8981 28.242C33.0541 28.134 33.1681 27.996 33.2401 27.828C33.3121 27.66 33.3481 27.486 33.3481 27.306C33.3721 27.006 33.3841 26.754 33.3841 26.55C33.3841 26.334 33.3721 26.088 33.3481 25.812C33.3361 25.536 33.2521 25.284 33.0961 25.056C32.9401 24.828 32.6701 24.714 32.2861 24.714C31.9141 24.714 31.6501 24.828 31.4941 25.056C31.3381 25.284 31.2541 25.536 31.2421 25.812C31.2301 26.088 31.2241 26.334 31.2241 26.55C31.2241 26.754 31.2301 27.006 31.2421 27.306C31.2541 27.486 31.2901 27.66 31.3501 27.828C31.4221 27.996 31.5301 28.134 31.6741 28.242C31.8301 28.35 32.0341 28.404 32.2861 28.404Z" fill="#006302"/>
<path d="M53 38.25H81C89.1462 38.25 95.75 44.8538 95.75 53V75C95.75 86.4599 86.4599 95.75 75 95.75H53C44.8538 95.75 38.25 89.1462 38.25 81V53C38.25 44.8538 44.8538 38.25 53 38.25Z" stroke="#006302" stroke-width="2.5"/>
</g>
<path d="M16 1.25H44C52.1462 1.25 58.75 7.8538 58.75 16V38C58.75 49.4599 49.4599 58.75 38 58.75H16C7.8538 58.75 1.25 52.1462 1.25 44V16C1.25 7.8538 7.8538 1.25 16 1.25Z" stroke="#006302" stroke-width="2.5"/>
<defs>
<clipPath id="clip0_31_30">
<path d="M0 16C0 7.16344 7.16345 0 16 0H44C52.8366 0 60 7.16345 60 16V38C60 50.1503 50.1503 60 38 60H16C7.16344 60 0 52.8366 0 44V16Z" fill="white"/>
</clipPath>
</defs>
</svg>
