<svg width="60" height="60" viewBox="0 0 60 60" fill="none" xmlns="http://www.w3.org/2000/svg">
<g clip-path="url(#clip0_31_31)">
<path d="M13.932 35C13.8147 35 13.7187 34.9627 13.644 34.888C13.58 34.8133 13.548 34.7227 13.548 34.616V26.328L11.116 28.2C11.02 28.264 10.924 28.2907 10.828 28.28C10.732 28.2587 10.6467 28.2 10.572 28.104L9.9 27.24C9.836 27.144 9.80933 27.0427 9.82 26.936C9.84133 26.8293 9.9 26.744 9.996 26.68L13.58 23.912C13.644 23.8587 13.708 23.8267 13.772 23.816C13.836 23.8053 13.9053 23.8 13.98 23.8H15.388C15.4947 23.8 15.5853 23.8373 15.66 23.912C15.7347 23.9867 15.772 24.0773 15.772 24.184V34.616C15.772 34.7227 15.7347 34.8133 15.66 34.888C15.5853 34.9627 15.4947 35 15.388 35H13.932ZM22.1543 35.16C21.3969 35.16 20.7516 35.048 20.2183 34.824C19.6849 34.6 19.2476 34.2907 18.9062 33.896C18.5649 33.5013 18.3089 33.048 18.1383 32.536C17.9676 32.0133 17.8663 31.4587 17.8343 30.872C17.8236 30.584 17.8129 30.2693 17.8023 29.928C17.8023 29.576 17.8023 29.224 17.8023 28.872C17.8129 28.52 17.8236 28.1947 17.8343 27.896C17.8556 27.3093 17.9569 26.76 18.1383 26.248C18.3196 25.7253 18.5809 25.272 18.9223 24.888C19.2743 24.504 19.7169 24.2 20.2503 23.976C20.7836 23.752 21.4183 23.64 22.1543 23.64C22.9009 23.64 23.5409 23.752 24.0743 23.976C24.6076 24.2 25.0449 24.504 25.3863 24.888C25.7383 25.272 25.9996 25.7253 26.1703 26.248C26.3516 26.76 26.4529 27.3093 26.4743 27.896C26.4956 28.1947 26.5063 28.52 26.5063 28.872C26.5063 29.224 26.5063 29.576 26.5063 29.928C26.5063 30.2693 26.4956 30.584 26.4743 30.872C26.4529 31.4587 26.3569 32.0133 26.1863 32.536C26.0156 33.048 25.7596 33.5013 25.4183 33.896C25.0769 34.2907 24.6343 34.6 24.0903 34.824C23.5569 35.048 22.9116 35.16 22.1543 35.16ZM22.1543 33.32C22.8476 33.32 23.3543 33.096 23.6743 32.648C24.0049 32.1893 24.1756 31.5707 24.1863 30.792C24.2076 30.4827 24.2183 30.1733 24.2183 29.864C24.2183 29.544 24.2183 29.224 24.2183 28.904C24.2183 28.584 24.2076 28.28 24.1863 27.992C24.1756 27.2347 24.0049 26.6267 23.6743 26.168C23.3543 25.6987 22.8476 25.464 22.1543 25.464C21.4716 25.464 20.9649 25.6987 20.6343 26.168C20.3143 26.6267 20.1436 27.2347 20.1223 27.992C20.1223 28.28 20.1169 28.584 20.1063 28.904C20.1063 29.224 20.1063 29.544 20.1063 29.864C20.1169 30.1733 20.1223 30.4827 20.1223 30.792C20.1436 31.5707 20.3196 32.1893 20.6503 32.648C20.9809 33.096 21.4823 33.32 22.1543 33.32ZM32.6699 35.16C31.9125 35.16 31.2672 35.048 30.7339 34.824C30.2005 34.6 29.7632 34.2907 29.4219 33.896C29.0805 33.5013 28.8245 33.048 28.6539 32.536C28.4832 32.0133 28.3819 31.4587 28.3499 30.872C28.3392 30.584 28.3285 30.2693 28.3179 29.928C28.3179 29.576 28.3179 29.224 28.3179 28.872C28.3285 28.52 28.3392 28.1947 28.3499 27.896C28.3712 27.3093 28.4725 26.76 28.6539 26.248C28.8352 25.7253 29.0965 25.272 29.4379 24.888C29.7899 24.504 30.2325 24.2 30.7659 23.976C31.2992 23.752 31.9339 23.64 32.6699 23.64C33.4165 23.64 34.0565 23.752 34.5899 23.976C35.1232 24.2 35.5605 24.504 35.9019 24.888C36.2539 25.272 36.5152 25.7253 36.6859 26.248C36.8672 26.76 36.9685 27.3093 36.9899 27.896C37.0112 28.1947 37.0219 28.52 37.0219 28.872C37.0219 29.224 37.0219 29.576 37.0219 29.928C37.0219 30.2693 37.0112 30.584 36.9899 30.872C36.9685 31.4587 36.8725 32.0133 36.7019 32.536C36.5312 33.048 36.2752 33.5013 35.9339 33.896C35.5925 34.2907 35.1499 34.6 34.6059 34.824C34.0725 35.048 33.4272 35.16 32.6699 35.16ZM32.6699 33.32C33.3632 33.32 33.8699 33.096 34.1899 32.648C34.5205 32.1893 34.6912 31.5707 34.7019 30.792C34.7232 30.4827 34.7339 30.1733 34.7339 29.864C34.7339 29.544 34.7339 29.224 34.7339 28.904C34.7339 28.584 34.7232 28.28 34.7019 27.992C34.6912 27.2347 34.5205 26.6267 34.1899 26.168C33.8699 25.6987 33.3632 25.464 32.6699 25.464C31.9872 25.464 31.4805 25.6987 31.1499 26.168C30.8299 26.6267 30.6592 27.2347 30.6379 27.992C30.6379 28.28 30.6325 28.584 30.6219 28.904C30.6219 29.224 30.6219 29.544 30.6219 29.864C30.6325 30.1733 30.6379 30.4827 30.6379 30.792C30.6592 31.5707 30.8352 32.1893 31.1659 32.648C31.4965 33.096 31.9979 33.32 32.6699 33.32ZM39.6975 35C39.4735 35 39.3615 34.8933 39.3615 34.68C39.3615 34.616 39.3828 34.5573 39.4255 34.504L47.3135 24.104C47.3882 24.008 47.4628 23.9333 47.5375 23.88C47.6122 23.8267 47.7188 23.8 47.8575 23.8H48.7055C48.9295 23.8 49.0415 23.9067 49.0415 24.12C49.0415 24.184 49.0202 24.2427 48.9775 24.296L41.0895 34.696C41.0148 34.792 40.9402 34.8667 40.8655 34.92C40.8015 34.9733 40.6948 35 40.5455 35H39.6975ZM47.3935 35.096C46.6788 35.096 46.1135 34.8987 45.6975 34.504C45.2815 34.1093 45.0522 33.592 45.0095 32.952C44.9988 32.6747 44.9935 32.4347 44.9935 32.232C44.9935 32.0293 44.9988 31.7787 45.0095 31.48C45.0522 30.84 45.2708 30.3227 45.6655 29.928C46.0708 29.5333 46.6468 29.336 47.3935 29.336C48.1508 29.336 48.7268 29.5333 49.1215 29.928C49.5268 30.3227 49.7455 30.84 49.7775 31.48C49.7988 31.7787 49.8095 32.0293 49.8095 32.232C49.8095 32.4347 49.7988 32.6747 49.7775 32.952C49.7455 33.592 49.5162 34.1093 49.0895 34.504C48.6735 34.8987 48.1082 35.096 47.3935 35.096ZM47.3935 33.848C47.6282 33.848 47.8095 33.8 47.9375 33.704C48.0762 33.608 48.1775 33.4853 48.2415 33.336C48.3055 33.1867 48.3375 33.0373 48.3375 32.888C48.3588 32.6213 48.3695 32.3973 48.3695 32.216C48.3695 32.024 48.3588 31.8053 48.3375 31.56C48.3268 31.3147 48.2522 31.0907 48.1135 30.888C47.9748 30.6747 47.7348 30.568 47.3935 30.568C47.0628 30.568 46.8282 30.6747 46.6895 30.888C46.5508 31.0907 46.4708 31.3147 46.4495 31.56C46.4388 31.8053 46.4335 32.024 46.4335 32.216C46.4335 32.3973 46.4388 32.6213 46.4495 32.888C46.4708 33.0373 46.5082 33.1867 46.5615 33.336C46.6255 33.4853 46.7215 33.608 46.8495 33.704C46.9882 33.8 47.1695 33.848 47.3935 33.848ZM41.0095 29.432C40.2948 29.432 39.7295 29.2453 39.3135 28.872C38.8975 28.4987 38.6682 27.992 38.6255 27.352C38.6148 27.0747 38.6095 26.8347 38.6095 26.632C38.6095 26.4187 38.6148 26.1627 38.6255 25.864C38.6682 25.224 38.8868 24.7067 39.2815 24.312C39.6868 23.9173 40.2628 23.72 41.0095 23.72C41.7668 23.72 42.3428 23.9173 42.7375 24.312C43.1428 24.7067 43.3615 25.224 43.3935 25.864C43.4148 26.1627 43.4255 26.4187 43.4255 26.632C43.4255 26.8347 43.4148 27.0747 43.3935 27.352C43.3615 27.992 43.1322 28.4987 42.7055 28.872C42.2895 29.2453 41.7242 29.432 41.0095 29.432ZM41.0095 28.248C41.2442 28.248 41.4255 28.2 41.5535 28.104C41.6922 28.008 41.7935 27.8853 41.8575 27.736C41.9215 27.5867 41.9535 27.432 41.9535 27.272C41.9748 27.0053 41.9855 26.7813 41.9855 26.6C41.9855 26.408 41.9748 26.1893 41.9535 25.944C41.9428 25.6987 41.8682 25.4747 41.7295 25.272C41.5908 25.0693 41.3508 24.968 41.0095 24.968C40.6788 24.968 40.4442 25.0693 40.3055 25.272C40.1668 25.4747 40.0922 25.6987 40.0815 25.944C40.0708 26.1893 40.0655 26.408 40.0655 26.6C40.0655 26.7813 40.0708 27.0053 40.0815 27.272C40.0922 27.432 40.1242 27.5867 40.1775 27.736C40.2415 27.8853 40.3375 28.008 40.4655 28.104C40.6042 28.2 40.7855 28.248 41.0095 28.248Z" fill="#006302"/>
<path d="M53 38.25H81C89.1462 38.25 95.75 44.8538 95.75 53V75C95.75 86.4599 86.4599 95.75 75 95.75H53C44.8538 95.75 38.25 89.1462 38.25 81V53C38.25 44.8538 44.8538 38.25 53 38.25Z" stroke="#006302" stroke-width="2.5"/>
</g>
<path d="M16 1.25H44C52.1462 1.25 58.75 7.8538 58.75 16V38C58.75 49.4599 49.4599 58.75 38 58.75H16C7.8538 58.75 1.25 52.1462 1.25 44V16C1.25 7.8538 7.8538 1.25 16 1.25Z" stroke="#006302" stroke-width="2.5"/>
<defs>
<clipPath id="clip0_31_31">
<path d="M0 16C0 7.16344 7.16345 0 16 0H44C52.8366 0 60 7.16345 60 16V38C60 50.1503 50.1503 60 38 60H16C7.16344 60 0 52.8366 0 44V16Z" fill="white"/>
</clipPath>
</defs>
</svg>
