<svg width="24" height="24" viewBox="0 0 24 24" fill="none" xmlns="http://www.w3.org/2000/svg">
<path d="M19.7083 6.29208C19.8014 6.38497 19.8753 6.49532 19.9257 6.61681C19.9761 6.7383 20.0021 6.86854 20.0021 7.00008C20.0021 7.13161 19.9761 7.26186 19.9257 7.38335C19.8753 7.50484 19.8014 7.61519 19.7083 7.70808L10.7083 16.7081C10.6154 16.8012 10.505 16.8751 10.3836 16.9255C10.2621 16.9759 10.1318 17.0019 10.0003 17.0019C9.86875 17.0019 9.73851 16.9759 9.61702 16.9255C9.49553 16.8751 9.38518 16.8012 9.29229 16.7081L5.29229 12.7081C5.10451 12.5203 4.99902 12.2656 4.99902 12.0001C4.99902 11.7345 5.10451 11.4799 5.29229 11.2921C5.48006 11.1043 5.73474 10.9988 6.00029 10.9988C6.26584 10.9988 6.52051 11.1043 6.70829 11.2921L10.0003 14.5861L18.2923 6.29208C18.3852 6.19895 18.4955 6.12507 18.617 6.07465C18.7385 6.02424 18.8688 5.99829 19.0003 5.99829C19.1318 5.99829 19.2621 6.02424 19.3836 6.07465C19.505 6.12507 19.6154 6.19895 19.7083 6.29208V6.29208Z" fill="#FF7F1E"/>
</svg>
