<svg width="60" height="60" viewBox="0 0 60 60" fill="none" xmlns="http://www.w3.org/2000/svg">
<path d="M54.9999 21.932C54.9999 12.5958 47.4043 5 38.0679 5C35.1336 5 32.2423 5.7626 29.7064 7.20537C27.2479 8.604 25.1602 10.6147 23.6686 13.0199C23.4367 13.3935 23.5518 13.8845 23.9256 14.1161C24.2991 14.3478 24.7901 14.2328 25.0218 13.8591C27.8437 9.30888 32.7208 6.59228 38.068 6.59228C46.5264 6.59228 53.4077 13.4737 53.4077 21.932C53.4077 30.3904 46.5264 37.2718 38.068 37.2718C37.8643 37.2718 37.6599 37.2665 37.4557 37.2584L38.6309 36.0832C38.9419 35.7722 38.9419 35.2681 38.6309 34.9573C38.32 34.6463 37.8159 34.6463 37.5051 34.9573L34.9573 37.5051C34.6464 37.816 34.6464 38.32 34.9573 38.6309L37.5051 41.1787C37.6604 41.3341 37.8643 41.4118 38.0681 41.4118C38.2718 41.4118 38.4756 41.3341 38.631 41.1787C38.942 40.8678 38.942 40.3637 38.631 40.0528L37.429 38.8508C37.6422 38.8588 37.8554 38.864 38.068 38.864C47.4043 38.8641 54.9999 31.2684 54.9999 21.932Z" fill="#FCC02A"/>
<path d="M46.5608 24.533H45.6585V16.8366C45.6585 16.3969 45.302 16.0404 44.8623 16.0404C44.4226 16.0404 44.0661 16.3969 44.0661 16.8366V24.533H40.7379L42.246 16.9928C42.3323 16.5615 42.0526 16.1421 41.6215 16.0559C41.19 15.9695 40.7708 16.2494 40.6847 16.6805L38.9861 25.173C38.9395 25.4069 38.9999 25.6495 39.1511 25.834C39.3023 26.0184 39.5282 26.1254 39.7668 26.1254H44.0662V27.8769C44.0662 28.3168 44.4227 28.6731 44.8624 28.6731C45.3021 28.6731 45.6586 28.3168 45.6586 27.8769V26.1254H46.5609C47.0007 26.1254 47.3571 25.769 47.3571 25.3292C47.3569 24.8894 47.0005 24.533 46.5608 24.533Z" fill="#FCC02A"/>
<path d="M37.2186 27.0807H32.167C32.445 26.0433 33.307 25.4729 34.5651 24.7176C36.102 23.7952 38.0148 22.6469 38.0148 19.8089C38.0148 17.731 36.3243 16.0404 34.2463 16.0404C32.1682 16.0404 30.4777 17.731 30.4777 19.8089C30.4777 20.2488 30.8342 20.6051 31.2739 20.6051C31.7137 20.6051 32.0701 20.2488 32.0701 19.8089C32.0701 18.6089 33.0464 17.6328 34.2464 17.6328C35.4464 17.6328 36.4225 18.609 36.4225 19.8089C36.4225 21.7456 35.2412 22.4547 33.7457 23.3524C33.0972 23.7415 32.4128 24.1533 31.8383 24.6924C30.751 19.2804 25.9611 15.1912 20.2336 15.1912C13.7069 15.1912 8.39707 20.501 8.39707 27.0277V45.4637L7.05781 46.0217C5.80771 46.5425 5 47.754 5 49.1083V52.5054C5 53.8809 6.11914 55 7.49473 55H32.9724C34.348 55 35.4672 53.8809 35.4672 52.5053V49.1082C35.4672 47.754 34.6595 46.5424 33.4095 46.0215L32.0702 45.4635V28.6731H37.2188C37.6586 28.6731 38.015 28.3167 38.015 27.8769C38.0148 27.4372 37.6584 27.0807 37.2186 27.0807ZM9.98935 27.0277C9.98935 21.379 14.5849 16.7835 20.2335 16.7835C25.8821 16.7835 30.4776 21.379 30.4776 27.0277V29.7982C30.1975 29.6892 29.8934 29.6286 29.5753 29.6286H29.3618C29.2258 29.0288 28.7583 28.5416 28.118 28.3899C25.5475 27.7808 23.2272 26.4525 21.4079 24.5488C21.1041 24.2309 20.6761 24.0486 20.2335 24.0486C19.7909 24.0486 19.3629 24.231 19.0591 24.5488C17.2396 26.4525 14.9193 27.7806 12.349 28.3899C11.7087 28.5415 11.241 29.0288 11.1051 29.6286H10.8917C10.5735 29.6286 10.2694 29.6891 9.98935 29.7982V27.0277ZM20.2336 38.8642C23.2818 38.8642 25.3678 38.2259 26.7207 37.5522C26.5069 37.8313 26.2363 38.0687 25.9196 38.2447L21.4967 40.7018C20.7057 41.1411 19.7614 41.1411 18.9704 40.7018L14.5475 38.2447C13.7946 37.8264 13.2984 37.0645 13.2205 36.2067L12.6561 29.9977C12.6532 29.9661 12.6904 29.9455 12.7162 29.9394C15.5866 29.2592 18.178 27.7756 20.2102 25.6491C20.2229 25.6358 20.244 25.6358 20.2567 25.6491C22.2892 27.7756 24.8805 29.2591 27.7509 29.9394C27.7766 29.9455 27.814 29.9661 27.811 29.9977L27.3323 35.2615C26.6822 35.8364 24.6199 37.2719 20.2333 37.2719C19.7935 37.2719 19.4371 37.6284 19.4371 38.0681C19.4374 38.5078 19.7938 38.8642 20.2336 38.8642ZM16.7834 42.0312V41.3082L18.1971 42.0937C18.8347 42.4478 19.534 42.625 20.2335 42.625C20.933 42.625 21.6323 42.448 22.2699 42.0937L23.6836 41.3083V42.0313C23.6836 43.0415 24.2861 43.9455 25.2187 44.334L26.1222 44.7105C23.5014 47.837 20.9383 48.8827 20.2311 49.125C19.521 48.886 16.981 47.8583 14.3446 44.7106L15.2481 44.3341C16.1809 43.9453 16.7834 43.0415 16.7834 42.0312ZM25.8313 42.8642C25.4939 42.7237 25.2761 42.3967 25.2761 42.0313V40.4238L26.693 39.6367C27.9069 38.9622 28.7067 37.7339 28.8325 36.3509L28.8355 36.3165H29.5754C29.8935 36.3165 30.1976 36.256 30.4777 36.147V44.8003L25.8313 42.8642ZM29.5754 34.7241H28.9804L29.2988 31.2208H29.5754C30.0729 31.2208 30.4777 31.6256 30.4777 32.1232V33.8217C30.4777 34.3194 30.0729 34.7241 29.5754 34.7241ZM9.98935 32.1232C9.98935 31.6256 10.3941 31.2208 10.8917 31.2208H11.1683L11.4867 34.7241H10.8917C10.3941 34.7241 9.98935 34.3193 9.98935 33.8217V32.1232ZM9.98935 36.1468C10.2694 36.2558 10.5735 36.3163 10.8917 36.3163H11.6315L11.6348 36.3507C11.7605 37.7337 12.5603 38.962 13.7743 39.6365L15.1911 40.4236V42.0313C15.1911 42.3967 14.9731 42.7237 14.6358 42.8642L9.98945 44.8001L9.98935 36.1468ZM10.0955 53.4076H7.49473C6.99717 53.4076 6.59238 53.0029 6.59238 52.5053V49.1082C6.59238 48.8887 6.6331 48.6765 6.7085 48.4798L9.43818 50.6637C9.85605 50.9979 10.0955 51.4964 10.0955 52.0314V53.4076ZM11.6879 53.4076V52.0313C11.6879 51.0098 11.2305 50.0581 10.4329 49.4201L7.90156 47.3951L11.9608 45.7036C12.2593 46.9834 13.0159 49.9145 14.3942 53.4075H11.6879V53.4076ZM16.1097 53.4076C14.9705 50.6135 14.2255 48.1039 13.8043 46.506C16.9762 49.9305 19.9052 50.6962 20.0406 50.7301C20.104 50.7459 20.1688 50.7538 20.2337 50.7538C20.2985 50.7538 20.3634 50.7458 20.4267 50.7301C20.5622 50.6962 23.4911 49.9306 26.6631 46.506C26.2418 48.1039 25.4969 50.6135 24.3577 53.4076H16.1097ZM33.7586 48.4799C33.834 48.6766 33.8747 48.8889 33.8747 49.1083V52.5054C33.8747 53.003 33.4699 53.4077 32.9723 53.4077H30.3715V52.0314C30.3715 51.4963 30.611 50.9979 31.0288 50.6636L33.7586 48.4799ZM32.5655 47.3951L30.0342 49.4202C29.2366 50.0582 28.7792 51.01 28.7792 52.0314V53.4077H26.0728C27.4513 49.9147 28.208 46.9836 28.5062 45.7038L32.5655 47.3951Z" fill="#FCC02A"/>
</svg>
