<svg width="60" height="60" viewBox="0 0 60 60" fill="none" xmlns="http://www.w3.org/2000/svg">
<g clip-path="url(#clip0_31_34)">
<path d="M23.14 38C22.804 38 22.636 37.84 22.636 37.52C22.636 37.424 22.668 37.336 22.732 37.256L34.564 21.656C34.676 21.512 34.788 21.4 34.9 21.32C35.012 21.24 35.172 21.2 35.38 21.2H36.652C36.988 21.2 37.156 21.36 37.156 21.68C37.156 21.776 37.124 21.864 37.06 21.944L25.228 37.544C25.116 37.688 25.004 37.8 24.892 37.88C24.796 37.96 24.636 38 24.412 38H23.14ZM34.684 38.144C33.612 38.144 32.764 37.848 32.14 37.256C31.516 36.664 31.172 35.888 31.108 34.928C31.092 34.512 31.084 34.152 31.084 33.848C31.084 33.544 31.092 33.168 31.108 32.72C31.172 31.76 31.5 30.984 32.092 30.392C32.7 29.8 33.564 29.504 34.684 29.504C35.82 29.504 36.684 29.8 37.276 30.392C37.884 30.984 38.212 31.76 38.26 32.72C38.292 33.168 38.308 33.544 38.308 33.848C38.308 34.152 38.292 34.512 38.26 34.928C38.212 35.888 37.868 36.664 37.228 37.256C36.604 37.848 35.756 38.144 34.684 38.144ZM34.684 36.272C35.036 36.272 35.308 36.2 35.5 36.056C35.708 35.912 35.86 35.728 35.956 35.504C36.052 35.28 36.1 35.056 36.1 34.832C36.132 34.432 36.148 34.096 36.148 33.824C36.148 33.536 36.132 33.208 36.1 32.84C36.084 32.472 35.972 32.136 35.764 31.832C35.556 31.512 35.196 31.352 34.684 31.352C34.188 31.352 33.836 31.512 33.628 31.832C33.42 32.136 33.3 32.472 33.268 32.84C33.252 33.208 33.244 33.536 33.244 33.824C33.244 34.096 33.252 34.432 33.268 34.832C33.3 35.056 33.356 35.28 33.436 35.504C33.532 35.728 33.676 35.912 33.868 36.056C34.076 36.2 34.348 36.272 34.684 36.272ZM25.108 29.648C24.036 29.648 23.188 29.368 22.564 28.808C21.94 28.248 21.596 27.488 21.532 26.528C21.516 26.112 21.508 25.752 21.508 25.448C21.508 25.128 21.516 24.744 21.532 24.296C21.596 23.336 21.924 22.56 22.516 21.968C23.124 21.376 23.988 21.08 25.108 21.08C26.244 21.08 27.108 21.376 27.7 21.968C28.308 22.56 28.636 23.336 28.684 24.296C28.716 24.744 28.732 25.128 28.732 25.448C28.732 25.752 28.716 26.112 28.684 26.528C28.636 27.488 28.292 28.248 27.652 28.808C27.028 29.368 26.18 29.648 25.108 29.648ZM25.108 27.872C25.46 27.872 25.732 27.8 25.924 27.656C26.132 27.512 26.284 27.328 26.38 27.104C26.476 26.88 26.524 26.648 26.524 26.408C26.556 26.008 26.572 25.672 26.572 25.4C26.572 25.112 26.556 24.784 26.524 24.416C26.508 24.048 26.396 23.712 26.188 23.408C25.98 23.104 25.62 22.952 25.108 22.952C24.612 22.952 24.26 23.104 24.052 23.408C23.844 23.712 23.732 24.048 23.716 24.416C23.7 24.784 23.692 25.112 23.692 25.4C23.692 25.672 23.7 26.008 23.716 26.408C23.732 26.648 23.78 26.88 23.86 27.104C23.956 27.328 24.1 27.512 24.292 27.656C24.5 27.8 24.772 27.872 25.108 27.872Z" fill="#006302"/>
<path d="M53 38.25H81C89.1462 38.25 95.75 44.8538 95.75 53V75C95.75 86.4599 86.4599 95.75 75 95.75H53C44.8538 95.75 38.25 89.1462 38.25 81V53C38.25 44.8538 44.8538 38.25 53 38.25Z" stroke="#006302" stroke-width="2.5"/>
</g>
<path d="M16 1.25H44C52.1462 1.25 58.75 7.8538 58.75 16V38C58.75 49.4599 49.4599 58.75 38 58.75H16C7.8538 58.75 1.25 52.1462 1.25 44V16C1.25 7.8538 7.8538 1.25 16 1.25Z" stroke="#006302" stroke-width="2.5"/>
<defs>
<clipPath id="clip0_31_34">
<path d="M0 16C0 7.16344 7.16345 0 16 0H44C52.8366 0 60 7.16345 60 16V38C60 50.1503 50.1503 60 38 60H16C7.16344 60 0 52.8366 0 44V16Z" fill="white"/>
</clipPath>
</defs>
</svg>
