<svg width="24" height="24" viewBox="0 0 24 24" fill="none" xmlns="http://www.w3.org/2000/svg">
<path d="M20.6001 12C20.3334 12 20.0958 11.904 19.8871 11.712C19.6784 11.52 19.5581 11.2827 19.5261 11C19.3094 9.45 18.6551 8.129 17.5631 7.037C16.4711 5.945 15.1501 5.291 13.6001 5.075C13.3168 5.04167 13.0791 4.925 12.8871 4.725C12.6951 4.525 12.5994 4.28333 12.6001 4C12.6001 3.71667 12.7001 3.479 12.9001 3.287C13.1001 3.095 13.3334 3.016 13.6001 3.05C15.7001 3.28333 17.4918 4.14167 18.9751 5.625C20.4584 7.10833 21.3168 8.9 21.5501 11C21.5834 11.2667 21.5041 11.5 21.3121 11.7C21.1201 11.9 20.8828 12 20.6001 12ZM16.4251 12C16.2084 12 16.0168 11.925 15.8501 11.775C15.6834 11.625 15.5584 11.425 15.4751 11.175C15.3418 10.6917 15.0874 10.2623 14.7121 9.887C14.3368 9.51167 13.9078 9.25767 13.4251 9.125C13.1751 9.04167 12.9751 8.91667 12.8251 8.75C12.6751 8.58333 12.6001 8.38333 12.6001 8.15C12.6001 7.81667 12.7168 7.54567 12.9501 7.337C13.1834 7.12833 13.4418 7.05767 13.7251 7.125C14.6584 7.34167 15.4628 7.78767 16.1381 8.463C16.8134 9.13833 17.2591 9.94233 17.4751 10.875C17.5418 11.1583 17.4668 11.4167 17.2501 11.65C17.0334 11.8833 16.7584 12 16.4251 12ZM20.5501 21C18.4001 21 16.3041 20.5207 14.2621 19.562C12.2201 18.6033 10.4118 17.3367 8.8371 15.762C7.26243 14.1873 5.99576 12.379 5.0371 10.337C4.07843 8.295 3.59943 6.19933 3.6001 4.05C3.6001 3.75 3.7001 3.5 3.9001 3.3C4.1001 3.1 4.3501 3 4.6501 3H8.7001C8.93343 3 9.14177 3.075 9.3251 3.225C9.50843 3.375 9.61677 3.56667 9.6501 3.8L10.3001 7.3C10.3334 7.53333 10.3291 7.746 10.2871 7.938C10.2451 8.13 10.1494 8.30067 10.0001 8.45L7.6001 10.9C8.3001 12.1 9.1751 13.225 10.2251 14.275C11.2751 15.325 12.4334 16.2333 13.7001 17L16.0501 14.65C16.2001 14.5 16.3961 14.3877 16.6381 14.313C16.8801 14.2383 17.1174 14.2173 17.3501 14.25L20.8001 14.95C21.0334 15 21.2251 15.1127 21.3751 15.288C21.5251 15.4633 21.6001 15.6673 21.6001 15.9V19.95C21.6001 20.25 21.5001 20.5 21.3001 20.7C21.1001 20.9 20.8501 21 20.5501 21ZM6.6501 9L8.3001 7.35L7.8501 5H5.6501C5.73343 5.68333 5.8501 6.35833 6.0001 7.025C6.1501 7.69167 6.36677 8.35 6.6501 9ZM19.6001 18.95V16.75L17.2501 16.25L15.6001 17.9C16.2501 18.1833 16.9084 18.4167 17.5751 18.6C18.2418 18.7833 18.9168 18.9 19.6001 18.95Z" fill="#FCC02A"/>
</svg>
