<svg width="80" height="80" viewBox="0 0 80 80" fill="none" xmlns="http://www.w3.org/2000/svg">
<path d="M16.8613 56.9304C17.3125 57.3835 17.6584 57.9304 17.874 58.5324C18.0897 59.1344 18.17 59.7765 18.1091 60.4131C17.8035 63.359 17.2242 66.2702 16.3786 69.1087C22.4439 67.7044 26.1482 66.0783 27.8308 65.2261C28.7852 64.7427 29.8842 64.6282 30.9178 64.9044C33.8805 65.6942 36.9341 66.0918 40.0004 66.087C57.3743 66.087 70.4352 53.8826 70.4352 40C70.4352 26.1217 57.3743 13.913 40.0004 13.913C22.6265 13.913 9.56559 26.1217 9.56559 40C9.56559 46.3826 12.2482 52.3044 16.8613 56.9304ZM14.7178 73.9087C13.6876 74.1129 12.6542 74.2999 11.6178 74.4696C10.7482 74.6087 10.0873 73.7044 10.4308 72.8957C10.8169 71.9852 11.1707 71.0615 11.4917 70.1261L11.5047 70.0826C12.583 66.9522 13.4613 63.3522 13.783 60C8.4482 54.6522 5.21777 47.6522 5.21777 40C5.21777 23.1913 20.7917 9.56519 40.0004 9.56519C59.2091 9.56519 74.783 23.1913 74.783 40C74.783 56.8087 59.2091 70.4348 40.0004 70.4348C36.5554 70.4394 33.1247 69.9921 29.796 69.1044C27.5352 70.2478 22.67 72.3304 14.7178 73.9087Z" fill="#006302"/>
<path d="M35.9389 34.6086C35.092 33.2897 33.8398 32.2813 32.3707 31.7349C30.9016 31.1886 29.2948 31.1339 27.7919 31.579C26.289 32.024 24.9711 32.9449 24.0364 34.2031C23.1017 35.4614 22.6006 36.989 22.6085 38.5564C22.6093 39.8544 22.9586 41.1283 23.62 42.2452C24.2813 43.362 25.2305 44.2807 26.3683 44.9054C27.5061 45.53 28.7907 45.8377 30.088 45.7962C31.3854 45.7547 32.6477 45.3656 33.7433 44.6695C33.1737 46.3608 32.1128 48.1651 30.365 49.9738C30.0306 50.3197 29.8473 50.7843 29.8555 51.2654C29.8595 51.5036 29.9104 51.7387 30.0053 51.9572C30.1002 52.1758 30.2372 52.3734 30.4085 52.539C30.5798 52.7046 30.782 52.8348 31.0036 52.9223C31.2252 53.0097 31.4619 53.0526 31.7001 53.0486C32.1812 53.0404 32.6393 52.8415 32.9737 52.4955C39.4346 45.7999 38.5954 38.5216 35.9389 34.6173V34.6086ZM53.3302 34.6086C52.4833 33.2897 51.2312 32.2813 49.762 31.7349C48.2929 31.1886 46.6861 31.1339 45.1832 31.579C43.6803 32.024 42.3624 32.9449 41.4277 34.2031C40.493 35.4614 39.9919 36.989 39.9998 38.5564C40.0006 39.8544 40.3499 41.1283 41.0113 42.2452C41.6726 43.362 42.6218 44.2807 43.7596 44.9054C44.8974 45.53 46.182 45.8377 47.4794 45.7962C48.7767 45.7547 50.039 45.3656 51.1346 44.6695C50.565 46.3608 49.5041 48.1651 47.7563 49.9738C47.5907 50.1451 47.4605 50.3473 47.3731 50.5689C47.2856 50.7906 47.2427 51.0272 47.2468 51.2654C47.2508 51.5036 47.3017 51.7387 47.3966 51.9572C47.4915 52.1758 47.6285 52.3734 47.7998 52.539C47.9711 52.7046 48.1733 52.8348 48.3949 52.9223C48.6165 53.0097 48.8532 53.0526 49.0914 53.0486C49.3296 53.0445 49.5647 52.9936 49.7832 52.8987C50.0017 52.8038 50.1994 52.6668 50.365 52.4955C56.8259 45.7999 55.9867 38.5216 53.3302 34.6173V34.6086Z" fill="#F57C1F"/>
</svg>
