<svg width="24" height="25" viewBox="0 0 24 25" fill="none" xmlns="http://www.w3.org/2000/svg">
<path opacity="0.2" d="M17.2619 14.3469C17.1591 14.4372 17.0827 14.5536 17.0407 14.6839C16.9988 14.8141 16.9929 14.9533 17.0237 15.0866L18.2912 20.5747C18.3247 20.718 18.3153 20.8681 18.2641 21.0061C18.213 21.1441 18.1223 21.264 18.0035 21.3509C17.8846 21.4377 17.7428 21.4877 17.5958 21.4946C17.4488 21.5014 17.303 21.4648 17.1766 21.3894L12.3859 18.4831C12.2695 18.4124 12.1359 18.3749 11.9997 18.3749C11.8634 18.3749 11.7298 18.4124 11.6134 18.4831L6.8228 21.3894C6.6964 21.4648 6.55059 21.5014 6.40355 21.4946C6.25651 21.4877 6.11473 21.4377 5.99589 21.3509C5.87704 21.264 5.78639 21.1441 5.73522 21.0061C5.68404 20.8681 5.67462 20.718 5.70811 20.5747L6.97561 15.0866C7.00642 14.9533 7.00055 14.8141 6.95863 14.6839C6.9167 14.5536 6.84028 14.4372 6.73749 14.3469L2.50843 10.6578C2.39536 10.5617 2.31335 10.4343 2.27275 10.2915C2.23216 10.1488 2.23481 9.99726 2.28038 9.85604C2.32594 9.71483 2.41237 9.5903 2.52873 9.49822C2.64509 9.40615 2.78615 9.35065 2.93405 9.33876L8.50843 8.85689C8.64443 8.84477 8.77454 8.79576 8.88474 8.71514C8.99493 8.63452 9.08103 8.52534 9.13374 8.39939L11.3116 3.20939C11.3697 3.07521 11.4658 2.96096 11.5881 2.8807C11.7104 2.80045 11.8534 2.75769 11.9997 2.75769C12.1459 2.75769 12.289 2.80045 12.4112 2.8807C12.5335 2.96096 12.6296 3.07521 12.6878 3.20939L14.8656 8.39939C14.9183 8.52534 15.0044 8.63452 15.1146 8.71514C15.2248 8.79576 15.3549 8.84477 15.4909 8.85689L21.0653 9.33876C21.2132 9.35065 21.3543 9.40615 21.4706 9.49822C21.587 9.5903 21.6734 9.71483 21.719 9.85604C21.7645 9.99726 21.7672 10.1488 21.7266 10.2915C21.686 10.4343 21.604 10.5617 21.4909 10.6578L17.2619 14.3469Z" fill="#FFC400"/>
<path d="M22.4248 9.621C22.334 9.34104 22.1628 9.094 21.9326 8.91063C21.7024 8.72726 21.4233 8.61566 21.1301 8.58975L15.5623 8.10974L13.3798 2.91974C13.2662 2.64742 13.0745 2.4148 12.829 2.25117C12.5834 2.08755 12.2949 2.00024 11.9998 2.00024C11.7047 2.00024 11.4163 2.08755 11.1707 2.25117C10.9251 2.4148 10.7335 2.64742 10.6198 2.91974L8.44389 8.10974L2.86951 8.59256C2.57517 8.61729 2.29468 8.72838 2.06322 8.91188C1.83176 9.09539 1.65964 9.34315 1.56842 9.6241C1.47721 9.90504 1.47098 10.2067 1.5505 10.4911C1.63003 10.7756 1.79177 11.0303 2.01545 11.2232L6.24451 14.9188L4.97701 20.4069C4.90999 20.6941 4.92911 20.9947 5.03199 21.2711C5.13488 21.5475 5.31695 21.7874 5.55545 21.9609C5.79394 22.1344 6.07829 22.2337 6.37293 22.2464C6.66756 22.2592 6.95942 22.1848 7.21201 22.0326L11.9933 19.1263L16.7848 22.0326C17.0374 22.1848 17.3293 22.2592 17.6239 22.2464C17.9186 22.2337 18.2029 22.1344 18.4414 21.9609C18.6799 21.7874 18.862 21.5475 18.9648 21.2711C19.0677 20.9947 19.0868 20.6941 19.0198 20.4069L17.7533 14.9132L21.9814 11.2232C22.205 11.0296 22.3665 10.7742 22.4454 10.4891C22.5243 10.2041 22.5171 9.90202 22.4248 9.621ZM20.9979 10.0897L16.7698 13.7797C16.564 13.9587 16.411 14.1905 16.327 14.45C16.2431 14.7095 16.2316 14.987 16.2936 15.2526L17.5639 20.7501L12.7761 17.8438C12.5425 17.7016 12.2743 17.6263 12.0008 17.6263C11.7273 17.6263 11.459 17.7016 11.2255 17.8438L6.4442 20.7501L7.70608 15.2563C7.76809 14.9907 7.75652 14.7132 7.6726 14.4537C7.58869 14.1942 7.43561 13.9625 7.22983 13.7835L2.99983 10.0954C2.99948 10.0926 2.99948 10.0897 2.99983 10.0869L8.57233 9.60506C8.84439 9.58108 9.10474 9.48327 9.3253 9.32219C9.54586 9.1611 9.71826 8.94286 9.82389 8.691L11.9998 3.50756L14.1748 8.691C14.2805 8.94286 14.4529 9.1611 14.6734 9.32219C14.894 9.48327 15.1543 9.58108 15.4264 9.60506L20.9998 10.0869V10.0935L20.9979 10.0897Z" fill="#FFC400"/>
</svg>
