<svg width="80" height="80" viewBox="0 0 80 80" fill="none" xmlns="http://www.w3.org/2000/svg">
<path d="M5 61.1221C5 60.5326 5.18433 59.9993 5.553 59.5222C5.92322 59.0469 6.38056 58.7186 6.925 58.5372C8.44167 58.0837 9.83233 57.3808 11.097 56.4285C12.3601 55.4762 14.2167 55 16.6667 55C18.1444 55 19.3593 55.1923 20.3113 55.5768C21.2649 55.9632 22.15 56.394 22.9667 56.8693C23.7833 57.3464 24.6 57.789 25.4167 58.1971C26.2333 58.6052 27.2056 58.8093 28.3333 58.8093C29.4611 58.8093 30.4333 58.6052 31.25 58.1971C32.0667 57.789 32.8833 57.3464 33.7 56.8693C34.5167 56.394 35.4111 55.9632 36.3833 55.5768C37.3556 55.1923 38.5611 55 40 55C42.45 55 44.3073 55.4762 45.572 56.4285C46.8351 57.3808 48.225 58.0837 49.7417 58.5372C50.2861 58.7186 50.7435 59.0361 51.1137 59.4896C51.4823 59.943 51.6667 60.4872 51.6667 61.1221C51.6667 61.9838 51.4139 62.6867 50.9083 63.2309C50.4028 63.775 49.8195 63.9791 49.1583 63.8431C47.175 63.3896 45.6194 62.6867 44.4917 61.7343C43.3639 60.782 41.8667 60.3058 40 60.3058C38.9111 60.3058 37.9684 60.4981 37.172 60.8827C36.374 61.2691 35.576 61.6999 34.778 62.1751C33.9816 62.6522 33.0879 63.0948 32.097 63.5029C31.1045 63.9111 29.85 64.1152 28.3333 64.1152C26.8167 64.1152 25.5621 63.9111 24.5697 63.5029C23.5788 63.0948 22.6851 62.6522 21.8887 62.1751C21.0907 61.6999 20.3028 61.2691 19.525 60.8827C18.7472 60.4981 17.7944 60.3058 16.6667 60.3058C14.8 60.3058 13.3028 60.782 12.175 61.7343C11.0472 62.6867 9.49166 63.3896 7.50833 63.8431C6.84722 63.9791 6.26389 63.775 5.75834 63.2309C5.25278 62.6867 5 61.9838 5 61.1221Z" fill="#1998A7"/>
<path d="M28.8863 59.5233C28.5177 60.0004 28.3333 60.5337 28.3333 61.1232C28.3333 61.9848 28.5861 62.6877 29.0917 63.2319C29.5972 63.7761 30.1806 63.9802 30.8417 63.8441C32.825 63.3907 34.3806 62.6877 35.5083 61.7354C36.6361 60.7831 38.1333 60.3058 40 60.3058C41.1278 60.3058 42.0806 60.4992 42.8583 60.8838C43.6361 61.2701 44.424 61.7019 45.222 62.1789C46.0184 62.6542 46.9121 63.0959 47.903 63.504C48.8954 63.9122 50.15 64.1162 51.6667 64.1162C53.1833 64.1162 54.4379 63.9122 55.4303 63.504C56.4212 63.0959 57.3149 62.6542 58.1113 62.1789C58.9093 61.7019 59.7073 61.2701 60.5053 60.8838C61.3018 60.4992 62.2444 60.3069 63.3333 60.3069C65.2 60.3069 66.6972 60.7831 67.825 61.7354C68.9528 62.6877 70.5083 63.3907 72.4917 63.8441C73.1528 63.9802 73.7361 63.7761 74.2417 63.2319C74.7472 62.6877 75 61.9848 75 61.1232C75 60.4883 74.8157 59.9441 74.447 59.4906C74.0768 59.0371 73.6194 58.7197 73.075 58.5383C71.5583 58.0848 70.1684 57.3819 68.9053 56.4296C67.6407 55.4772 65.7833 55.0011 63.3333 55.0011C61.8944 55.0011 60.6889 55.1934 59.7167 55.5779C58.7444 55.9643 57.85 56.3951 57.0333 56.8704C56.2167 57.3474 55.4 57.79 54.5833 58.1982C53.7667 58.6063 52.7944 58.8104 51.6667 58.8104C50.5389 58.8104 49.5667 58.6063 48.75 58.1982C47.9333 57.79 47.1167 57.3474 46.3 56.8704C45.4833 56.3951 44.5982 55.9643 43.6447 55.5779C42.6927 55.1934 41.4778 55 40 55C37.55 55 35.6934 55.4772 34.4303 56.4296C33.1657 57.3819 31.775 58.0848 30.2583 58.5383C29.7139 58.7197 29.2566 59.048 28.8863 59.5233Z" fill="#1998A7"/>
<path d="M5 72.0059C5 71.4164 5.18433 70.883 5.553 70.406C5.92322 69.9307 6.38056 69.6024 6.925 69.421C8.44167 68.9675 9.83233 68.2646 11.097 67.3123C12.3601 66.3599 14.2167 65.8838 16.6667 65.8838C18.1444 65.8838 19.3593 66.076 20.3113 66.4606C21.2649 66.847 22.15 67.2778 22.9667 67.7531C23.7833 68.2301 24.6 68.6727 25.4167 69.0809C26.2333 69.489 27.2056 69.6931 28.3333 69.6931C29.4611 69.6931 30.4333 69.489 31.25 69.0809C32.0667 68.6727 32.8833 68.2301 33.7 67.7531C34.5167 67.2778 35.4111 66.847 36.3833 66.4606C37.3556 66.076 38.5611 65.8838 40 65.8838C42.45 65.8838 44.3073 66.3599 45.572 67.3123C46.8351 68.2646 48.225 68.9675 49.7417 69.421C50.2861 69.6024 50.7435 69.9198 51.1137 70.3733C51.4823 70.8268 51.6667 71.371 51.6667 72.0059C51.6667 72.8675 51.4139 73.5704 50.9083 74.1146C50.4028 74.6588 49.8195 74.8629 49.1583 74.7268C47.175 74.2733 45.6194 73.5704 44.4917 72.6181C43.3639 71.6658 41.8667 71.1896 40 71.1896C38.9111 71.1896 37.9684 71.3819 37.172 71.7664C36.374 72.1528 35.576 72.5836 34.778 73.0589C33.9816 73.536 33.0879 73.9786 32.097 74.3867C31.1045 74.7949 29.85 74.9989 28.3333 74.9989C26.8167 74.9989 25.5621 74.7949 24.5697 74.3867C23.5788 73.9786 22.6851 73.536 21.8887 73.0589C21.0907 72.5836 20.3028 72.1528 19.525 71.7664C18.7472 71.3819 17.7944 71.1896 16.6667 71.1896C14.8 71.1896 13.3028 71.6658 12.175 72.6181C11.0472 73.5704 9.49166 74.2733 7.50833 74.7268C6.84722 74.8629 6.26389 74.6588 5.75834 74.1146C5.25278 73.5704 5 72.8675 5 72.0059Z" fill="#1998A7"/>
<path d="M28.8863 70.4071C28.5177 70.8841 28.3333 71.4174 28.3333 72.007C28.3333 72.8686 28.5861 73.5715 29.0917 74.1157C29.5972 74.6599 30.1806 74.864 30.8417 74.7279C32.825 74.2744 34.3806 73.5715 35.5083 72.6192C36.6361 71.6668 38.1333 71.1896 40 71.1896C41.1278 71.1896 42.0806 71.383 42.8583 71.7675C43.6361 72.1539 44.424 72.5856 45.222 73.0627C46.0184 73.5379 46.9121 73.9796 47.903 74.3878C48.8954 74.7959 50.15 75 51.6667 75C53.1833 75 54.4379 74.7959 55.4303 74.3878C56.4212 73.9796 57.3149 73.5379 58.1113 73.0627C58.9093 72.5856 59.7073 72.1539 60.5053 71.7675C61.3018 71.383 62.2444 71.1907 63.3333 71.1907C65.2 71.1907 66.6972 71.6668 67.825 72.6192C68.9528 73.5715 70.5083 74.2744 72.4917 74.7279C73.1528 74.864 73.7361 74.6599 74.2417 74.1157C74.7472 73.5715 75 72.8686 75 72.007C75 71.3721 74.8157 70.8279 74.447 70.3744C74.0768 69.9209 73.6194 69.6035 73.075 69.4221C71.5583 68.9686 70.1684 68.2657 68.9053 67.3133C67.6407 66.361 65.7833 65.8848 63.3333 65.8848C61.8944 65.8848 60.6889 66.0771 59.7167 66.4617C58.7444 66.8481 57.85 67.2789 57.0333 67.7541C56.2167 68.2312 55.4 68.6738 54.5833 69.082C53.7667 69.4901 52.7944 69.6942 51.6667 69.6942C50.5389 69.6942 49.5667 69.4901 48.75 69.082C47.9333 68.6738 47.1167 68.2312 46.3 67.7541C45.4833 67.2789 44.5982 66.8481 43.6447 66.4617C42.6927 66.0771 41.4778 65.8838 40 65.8838C37.55 65.8838 35.6934 66.361 34.4303 67.3133C33.1657 68.2657 31.775 68.9686 30.2583 69.4221C29.7139 69.6035 29.2566 69.9318 28.8863 70.4071Z" fill="#1998A7"/>
<path d="M68.3844 24.9228L43.3844 6.33531C43.3721 6.32465 43.3607 6.31316 43.35 6.30094C42.4296 5.46385 41.2301 5 39.9859 5C38.7418 5 37.5423 5.46385 36.6219 6.30094L36.5875 6.33531L11.6156 24.9228C11.1062 25.3912 10.6996 25.9602 10.4215 26.5939C10.1434 27.2276 9.99989 27.9121 10 28.6041L10 53.75C10.3757 53.5216 10.7413 53.2679 11.097 53C12.056 52.277 13.357 51.8241 15 51.65V28.6041L15.0344 28.5728L40 9.99469L64.9688 28.5666L65.0031 28.5978L65.0001 51.65C66.6431 51.8241 67.944 52.277 68.903 53C69.2587 53.2679 69.6244 53.5216 70 53.75V28.6041C70.0001 27.9121 69.8566 27.2276 69.5785 26.5939C69.3004 25.9602 68.8938 25.3912 68.3844 24.9228Z" fill="#F8981D"/>
<path d="M40.8333 35.8333H47.5V40.8333C47.5 41.2917 47.3369 41.6842 47.0108 42.0108C46.6842 42.3369 46.2917 42.5 45.8333 42.5H40.8333V35.8333Z" fill="#F8981D"/>
<path d="M40.8333 34.1667V27.5H45.8333C46.2917 27.5 46.6842 27.6631 47.0108 27.9892C47.3369 28.3158 47.5 28.7083 47.5 29.1667V34.1667H40.8333Z" fill="#F8981D"/>
<path d="M39.1667 34.1667H32.5V29.1667C32.5 28.7083 32.6631 28.3158 32.9892 27.9892C33.3158 27.6631 33.7083 27.5 34.1667 27.5H39.1667V34.1667Z" fill="#F8981D"/>
<path d="M39.1667 35.8333V42.5H34.1667C33.7083 42.5 33.3158 42.3369 32.9892 42.0108C32.6631 41.6842 32.5 41.2917 32.5 40.8333V35.8333H39.1667Z" fill="#F8981D"/>
</svg>
