<svg width="326" height="203" viewBox="0 0 326 203" fill="none" xmlns="http://www.w3.org/2000/svg">
<path fill-rule="evenodd" clip-rule="evenodd" d="M71.3245 17.3104C76.265 12.617 82.8193 10 89.6338 10C96.4483 10 103.003 12.617 107.943 17.3104C108.056 17.4182 108.167 17.5289 108.275 17.6424L165.055 77.5163C168.476 81.123 168.325 86.8195 164.718 90.2398C161.111 93.6601 155.415 93.509 151.994 89.9024L95.4041 30.229C93.8263 28.7962 91.7696 28 89.6338 28C87.4804 28 85.4075 28.8093 83.8248 30.2644L36.8921 78.3714C36.8125 78.453 36.7314 78.5331 36.6488 78.6116C34.0756 81.056 32.0267 83.9985 30.6265 87.2598C29.2264 90.5211 28.5044 94.0332 28.5044 97.5824V166.417C28.5044 168.693 29.4087 170.876 31.0184 172.486C32.6281 174.096 34.8113 175 37.0877 175H272.502C277.473 175 281.502 179.029 281.502 184C281.502 188.971 277.473 193 272.502 193H37.0877C30.0374 193 23.2758 190.199 18.2905 185.214C13.3051 180.229 10.5044 173.467 10.5044 166.417L10.5044 97.5824C10.5044 91.5918 11.7231 85.6637 14.0864 80.1589C16.4259 74.7095 19.8386 69.7876 24.1205 65.6863L71.0812 17.5506C71.1608 17.469 71.2419 17.3889 71.3245 17.3104Z" fill="white"/>
<path fill-rule="evenodd" clip-rule="evenodd" d="M71.3245 17.3104C76.265 12.617 82.8193 10 89.6338 10C96.4483 10 103.003 12.617 107.943 17.3104C108.056 17.4182 108.167 17.5289 108.275 17.6424L165.055 77.5163C168.476 81.123 168.325 86.8195 164.718 90.2398C161.111 93.6601 155.415 93.509 151.994 89.9024L95.4041 30.229C93.8263 28.7962 91.7696 28 89.6338 28C87.4804 28 85.4075 28.8093 83.8248 30.2644L36.8921 78.3714C36.8125 78.453 36.7314 78.5331 36.6488 78.6116C34.0756 81.056 32.0267 83.9985 30.6265 87.2598C29.2264 90.5211 28.5044 94.0332 28.5044 97.5824V166.417C28.5044 168.693 29.4087 170.876 31.0184 172.486C32.6281 174.096 34.8113 175 37.0877 175H272.502C277.473 175 281.502 179.029 281.502 184C281.502 188.971 277.473 193 272.502 193H37.0877C30.0374 193 23.2758 190.199 18.2905 185.214C13.3051 180.229 10.5044 173.467 10.5044 166.417L10.5044 97.5824C10.5044 91.5918 11.7231 85.6637 14.0864 80.1589C16.4259 74.7095 19.8386 69.7876 24.1205 65.6863L71.0812 17.5506C71.1608 17.469 71.2419 17.3889 71.3245 17.3104Z" fill="white"/>
<path d="M299.876 164L293.86 144.398H293.707C293.729 144.865 293.764 145.571 293.809 146.517C293.866 147.451 293.917 148.448 293.963 149.508C294.008 150.567 294.031 151.524 294.031 152.379V164H289.297V139.015H296.509L302.422 158.121H302.525L308.797 139.015H316.009V164H311.07V152.174C311.07 151.388 311.081 150.482 311.104 149.457C311.138 148.431 311.178 147.457 311.224 146.534C311.269 145.6 311.303 144.899 311.326 144.432H311.172L304.729 164H299.876Z" fill="white"/>
<path d="M284.119 151.473C284.119 153.399 283.88 155.153 283.401 156.737C282.923 158.309 282.194 159.665 281.214 160.804C280.245 161.944 279.015 162.821 277.522 163.436C276.03 164.04 274.264 164.342 272.225 164.342C270.185 164.342 268.419 164.04 266.927 163.436C265.434 162.821 264.198 161.944 263.218 160.804C262.25 159.665 261.526 158.303 261.048 156.72C260.569 155.136 260.33 153.376 260.33 151.439C260.33 148.853 260.752 146.603 261.595 144.688C262.449 142.763 263.759 141.271 265.525 140.211C267.291 139.151 269.536 138.622 272.259 138.622C274.97 138.622 277.198 139.151 278.941 140.211C280.695 141.271 281.994 142.763 282.837 144.688C283.692 146.614 284.119 148.875 284.119 151.473ZM265.884 151.473C265.884 153.216 266.101 154.72 266.534 155.985C266.978 157.238 267.667 158.207 268.602 158.89C269.536 159.562 270.743 159.898 272.225 159.898C273.729 159.898 274.948 159.562 275.882 158.89C276.816 158.207 277.494 157.238 277.916 155.985C278.348 154.72 278.565 153.216 278.565 151.473C278.565 148.853 278.075 146.791 277.095 145.287C276.115 143.783 274.503 143.031 272.259 143.031C270.766 143.031 269.547 143.373 268.602 144.056C267.667 144.728 266.978 145.697 266.534 146.961C266.101 148.215 265.884 149.719 265.884 151.473Z" fill="white"/>
<path d="M258.296 164H252.281L243.223 151.336V164H237.925V139.015H243.223V151.114L252.178 139.015H257.818L248.709 151.012L258.296 164Z" fill="white"/>
<path d="M215.572 164V139.015H220.87V148.602H222.955C225.302 148.602 227.227 148.927 228.731 149.576C230.246 150.226 231.363 151.126 232.081 152.276C232.81 153.416 233.174 154.72 233.174 156.19C233.174 158.662 232.348 160.582 230.696 161.949C229.056 163.316 226.441 164 222.852 164H215.572ZM220.87 159.659H222.647C224.253 159.659 225.518 159.403 226.441 158.89C227.364 158.366 227.825 157.466 227.825 156.19C227.825 155.301 227.597 154.623 227.142 154.156C226.697 153.689 226.054 153.37 225.21 153.199C224.379 153.028 223.382 152.943 222.22 152.943H220.87V159.659Z" fill="white"/>
<path d="M209.249 164H203.968V153.216H194.073V164H188.775V139.015H194.073V148.807H203.968V139.015H209.249V164Z" fill="white"/>
<path d="M183.545 164H169.156V139.015H183.545V143.355H174.454V148.841H182.913V153.182H174.454V159.625H183.545V164Z" fill="white"/>
<path d="M158.526 164H153.228V143.424H146.443V139.015H165.311V143.424H158.526V164Z" fill="white"/>
<path d="M137.181 143.065C136.167 143.065 135.267 143.264 134.48 143.663C133.706 144.05 133.051 144.614 132.515 145.355C131.991 146.096 131.592 146.99 131.319 148.038C131.045 149.086 130.909 150.265 130.909 151.576C130.909 153.342 131.125 154.851 131.558 156.104C132.002 157.346 132.686 158.298 133.609 158.958C134.532 159.608 135.722 159.933 137.181 159.933C138.195 159.933 139.209 159.819 140.223 159.591C141.248 159.363 142.359 159.038 143.555 158.617V163.06C142.45 163.516 141.362 163.84 140.291 164.034C139.22 164.239 138.018 164.342 136.685 164.342C134.11 164.342 131.991 163.812 130.328 162.752C128.676 161.681 127.451 160.189 126.653 158.275C125.856 156.349 125.457 154.105 125.457 151.542C125.457 149.65 125.713 147.918 126.226 146.346C126.739 144.774 127.491 143.412 128.482 142.262C129.473 141.111 130.698 140.222 132.156 139.596C133.615 138.969 135.289 138.656 137.181 138.656C138.423 138.656 139.664 138.815 140.906 139.134C142.16 139.442 143.356 139.869 144.495 140.416L142.786 144.723C141.852 144.278 140.912 143.891 139.966 143.561C139.021 143.23 138.092 143.065 137.181 143.065Z" fill="white"/>
<path d="M97.7544 139.015H102.522V151.08C102.522 151.673 102.511 152.328 102.488 153.045C102.477 153.763 102.454 154.47 102.42 155.165C102.397 155.848 102.374 156.446 102.352 156.959C102.329 157.472 102.306 157.813 102.283 157.984H102.386L113.921 139.015H120.262V164H115.545V152.003C115.545 151.365 115.556 150.67 115.579 149.918C115.602 149.166 115.63 148.437 115.665 147.73C115.71 147.024 115.75 146.415 115.784 145.902C115.818 145.378 115.841 145.03 115.853 144.859H115.716L104.129 164H97.7544V139.015Z" fill="white"/>
<path d="M91.4482 164H86.1504V154.344C84.6807 154.846 83.3363 155.227 82.1172 155.489C80.8981 155.751 79.6676 155.882 78.4258 155.882C76.0788 155.882 74.2502 155.318 72.9399 154.19C71.6297 153.051 70.9746 151.433 70.9746 149.337V139.015H76.2554V147.833C76.2554 149.041 76.5345 149.952 77.0928 150.567C77.651 151.171 78.5967 151.473 79.9297 151.473C80.9095 151.473 81.8893 151.371 82.8691 151.166C83.849 150.949 84.9427 150.63 86.1504 150.208V139.015H91.4482V164Z" fill="white"/>
<path d="M39.6489 139.015H47.4248C50.7516 139.015 53.2695 139.482 54.9785 140.416C56.6875 141.35 57.542 142.991 57.542 145.338C57.542 146.284 57.3882 147.138 57.0806 147.901C56.7843 148.665 56.3514 149.291 55.7817 149.781C55.2121 150.271 54.5171 150.59 53.6968 150.738V150.909C54.5285 151.08 55.2804 151.376 55.9526 151.798C56.6248 152.208 57.1603 152.812 57.5591 153.609C57.9692 154.396 58.1743 155.444 58.1743 156.754C58.1743 158.269 57.804 159.568 57.0635 160.65C56.3229 161.733 55.2633 162.564 53.8848 163.146C52.5176 163.715 50.8883 164 48.9971 164H39.6489V139.015ZM44.9468 148.91H48.0229C49.561 148.91 50.6263 148.67 51.2188 148.192C51.8112 147.702 52.1074 146.984 52.1074 146.039C52.1074 145.082 51.7542 144.398 51.0479 143.988C50.3529 143.566 49.2477 143.355 47.7324 143.355H44.9468V148.91ZM44.9468 153.114V159.625H48.3989C49.994 159.625 51.1048 159.317 51.7314 158.702C52.3581 158.087 52.6714 157.261 52.6714 156.224C52.6714 155.609 52.5347 155.068 52.2612 154.601C51.9878 154.133 51.5264 153.769 50.877 153.507C50.2389 153.245 49.356 153.114 48.228 153.114H44.9468Z" fill="white"/>
<path d="M245.582 104.015H250.35V116.08C250.35 116.673 250.338 117.328 250.315 118.045C250.304 118.763 250.281 119.47 250.247 120.165C250.224 120.848 250.201 121.446 250.179 121.959C250.156 122.472 250.133 122.813 250.11 122.984H250.213L261.749 104.015H268.089V129H263.372V117.003C263.372 116.365 263.383 115.67 263.406 114.918C263.429 114.166 263.458 113.437 263.492 112.73C263.537 112.024 263.577 111.415 263.611 110.902C263.646 110.378 263.668 110.03 263.68 109.859H263.543L251.956 129H245.582V104.015Z" fill="white"/>
<path d="M242.437 129H236.421L227.364 116.336V129H222.066V104.015H227.364V116.114L236.319 104.015H241.958L232.85 116.012L242.437 129Z" fill="white"/>
<path d="M193.252 104.015H198.021V116.08C198.021 116.673 198.009 117.328 197.986 118.045C197.975 118.763 197.952 119.47 197.918 120.165C197.895 120.848 197.872 121.446 197.85 121.959C197.827 122.472 197.804 122.813 197.781 122.984H197.884L209.419 104.015H215.76V129H211.043V117.003C211.043 116.365 211.054 115.67 211.077 114.918C211.1 114.166 211.128 113.437 211.163 112.73C211.208 112.024 211.248 111.415 211.282 110.902C211.316 110.378 211.339 110.03 211.351 109.859H211.214L199.627 129H193.252V104.015Z" fill="white"/>
<path d="M186.929 129H181.648V118.216H171.753V129H166.456V104.015H171.753V113.807H181.648V104.015H186.929V129Z" fill="white"/>
<path d="M155.826 129H150.528V108.424H143.743V104.015H162.61V108.424H155.826V129Z" fill="white"/>
<path d="M131.319 119.413L125.474 129H119.595L126.705 118.011C126.032 117.726 125.354 117.311 124.671 116.764C123.999 116.217 123.44 115.488 122.996 114.576C122.552 113.653 122.33 112.514 122.33 111.158C122.33 108.845 123.156 107.079 124.808 105.86C126.46 104.63 128.778 104.015 131.763 104.015H139.898V129H134.6V119.413H131.319ZM134.6 108.355H131.985C131.074 108.355 130.293 108.464 129.644 108.68C129.006 108.897 128.516 109.238 128.174 109.706C127.844 110.161 127.679 110.771 127.679 111.534C127.679 112.639 128.043 113.511 128.772 114.149C129.502 114.787 130.618 115.106 132.122 115.106H134.6V108.355Z" fill="white"/>
<path d="M100.472 129L94.4561 109.398H94.3022C94.325 109.865 94.3592 110.571 94.4048 111.517C94.4618 112.451 94.513 113.448 94.5586 114.508C94.6042 115.567 94.627 116.524 94.627 117.379V129H89.8931V104.015H97.105L103.018 123.121H103.121L109.393 104.015H116.604V129H111.666V117.174C111.666 116.388 111.677 115.482 111.7 114.457C111.734 113.431 111.774 112.457 111.819 111.534C111.865 110.6 111.899 109.899 111.922 109.432H111.768L105.325 129H100.472Z" fill="white"/>
<path d="M81.0234 129L79.2119 123.053H70.103L68.2915 129H62.5835L71.4019 103.912H77.8789L86.7314 129H81.0234ZM77.9473 118.609L76.1357 112.799C76.0218 112.411 75.868 111.916 75.6743 111.312C75.492 110.697 75.304 110.076 75.1104 109.449C74.9281 108.811 74.7799 108.259 74.666 107.792C74.5521 108.259 74.3926 108.84 74.1875 109.535C73.9938 110.218 73.8058 110.868 73.6235 111.483C73.4412 112.098 73.3102 112.537 73.2305 112.799L71.436 118.609H77.9473Z" fill="white"/>
<path d="M39.6489 129V104.015H59.4219V129H54.1411V108.424H44.9468V129H39.6489Z" fill="white"/>
</svg>
