<svg width="326" height="203" viewBox="0 0 326 203" fill="none" xmlns="http://www.w3.org/2000/svg">
<path fill-rule="evenodd" clip-rule="evenodd" d="M70.8201 17.3104C75.7606 12.617 82.3149 10 89.1294 10C95.9439 10 102.498 12.617 107.439 17.3104C107.552 17.4182 107.663 17.5289 107.77 17.6424L164.551 77.5163C167.971 81.123 167.82 86.8195 164.214 90.2398C160.607 93.6601 154.91 93.509 151.49 89.9024L94.8997 30.229C93.3219 28.7962 91.2653 28 89.1294 28C86.976 28 84.9032 28.8093 83.3204 30.2644L36.3877 78.3714C36.3081 78.453 36.227 78.5331 36.1444 78.6116C33.5712 81.056 31.5223 83.9985 30.1221 87.2598C28.722 90.5211 28 94.0332 28 97.5824V166.417C28 168.693 28.9043 170.876 30.514 172.486C32.1237 174.096 34.3069 175 36.5833 175H271.998C276.968 175 280.998 179.029 280.998 184C280.998 188.971 276.968 193 271.998 193H36.5833C29.533 193 22.7714 190.199 17.7861 185.214C12.8007 180.229 10 173.467 10 166.417L10 97.5824C9.99999 91.5918 11.2187 85.6637 13.582 80.1589C15.9215 74.7095 19.3342 69.7876 23.6161 65.6863L70.5768 17.5506C70.6564 17.469 70.7375 17.3889 70.8201 17.3104Z" fill="#FCC02A"/>
<path d="M299.372 164L293.356 144.398H293.202C293.225 144.865 293.259 145.571 293.305 146.517C293.362 147.451 293.413 148.448 293.458 149.508C293.504 150.567 293.527 151.524 293.527 152.379V164H288.793V139.015H296.005L301.918 158.121H302.021L308.292 139.015H315.504V164H310.565V152.174C310.565 151.388 310.577 150.482 310.6 149.457C310.634 148.431 310.674 147.457 310.719 146.534C310.765 145.6 310.799 144.899 310.822 144.432H310.668L304.225 164H299.372Z" fill="#1C1C1C"/>
<path d="M283.615 151.473C283.615 153.399 283.375 155.153 282.897 156.737C282.418 158.309 281.689 159.665 280.709 160.804C279.741 161.944 278.511 162.821 277.018 163.436C275.526 164.04 273.76 164.342 271.72 164.342C269.681 164.342 267.915 164.04 266.422 163.436C264.93 162.821 263.694 161.944 262.714 160.804C261.745 159.665 261.022 158.303 260.543 156.72C260.065 155.136 259.826 153.376 259.826 151.439C259.826 148.853 260.247 146.603 261.09 144.688C261.945 142.763 263.255 141.271 265.021 140.211C266.787 139.151 269.031 138.622 271.754 138.622C274.466 138.622 276.693 139.151 278.437 140.211C280.191 141.271 281.49 142.763 282.333 144.688C283.188 146.614 283.615 148.875 283.615 151.473ZM265.38 151.473C265.38 153.216 265.596 154.72 266.029 155.985C266.474 157.238 267.163 158.207 268.097 158.89C269.031 159.562 270.239 159.898 271.72 159.898C273.224 159.898 274.443 159.562 275.377 158.89C276.312 158.207 276.99 157.238 277.411 155.985C277.844 154.72 278.061 153.216 278.061 151.473C278.061 148.853 277.571 146.791 276.591 145.287C275.611 143.783 273.999 143.031 271.754 143.031C270.262 143.031 269.043 143.373 268.097 144.056C267.163 144.728 266.474 145.697 266.029 146.961C265.596 148.215 265.38 149.719 265.38 151.473Z" fill="#1C1C1C"/>
<path d="M257.792 164H251.776L242.719 151.336V164H237.421V139.015H242.719V151.114L251.674 139.015H257.313L248.205 151.012L257.792 164Z" fill="#1C1C1C"/>
<path d="M215.067 164V139.015H220.365V148.602H222.45C224.797 148.602 226.723 148.927 228.227 149.576C229.742 150.226 230.858 151.126 231.576 152.276C232.305 153.416 232.67 154.72 232.67 156.19C232.67 158.662 231.844 160.582 230.192 161.949C228.551 163.316 225.937 164 222.348 164H215.067ZM220.365 159.659H222.143C223.749 159.659 225.014 159.403 225.937 158.89C226.859 158.366 227.321 157.466 227.321 156.19C227.321 155.301 227.093 154.623 226.637 154.156C226.193 153.689 225.549 153.37 224.706 153.199C223.874 153.028 222.877 152.943 221.715 152.943H220.365V159.659Z" fill="#1C1C1C"/>
<path d="M208.744 164H203.463V153.216H193.568V164H188.271V139.015H193.568V148.807H203.463V139.015H208.744V164Z" fill="#1C1C1C"/>
<path d="M183.041 164H168.651V139.015H183.041V143.355H173.949V148.841H182.409V153.182H173.949V159.625H183.041V164Z" fill="#1C1C1C"/>
<path d="M158.021 164H152.724V143.424H145.939V139.015H164.806V143.424H158.021V164Z" fill="#1C1C1C"/>
<path d="M136.676 143.065C135.662 143.065 134.762 143.264 133.976 143.663C133.201 144.05 132.546 144.614 132.011 145.355C131.487 146.096 131.088 146.99 130.814 148.038C130.541 149.086 130.404 150.265 130.404 151.576C130.404 153.342 130.621 154.851 131.054 156.104C131.498 157.346 132.182 158.298 133.104 158.958C134.027 159.608 135.218 159.933 136.676 159.933C137.69 159.933 138.704 159.819 139.718 159.591C140.744 159.363 141.854 159.038 143.051 158.617V163.06C141.946 163.516 140.858 163.84 139.787 164.034C138.716 164.239 137.514 164.342 136.181 164.342C133.606 164.342 131.487 163.812 129.823 162.752C128.171 161.681 126.946 160.189 126.149 158.275C125.351 156.349 124.953 154.105 124.953 151.542C124.953 149.65 125.209 147.918 125.722 146.346C126.234 144.774 126.986 143.412 127.978 142.262C128.969 141.111 130.194 140.222 131.652 139.596C133.11 138.969 134.785 138.656 136.676 138.656C137.918 138.656 139.16 138.815 140.402 139.134C141.655 139.442 142.851 139.869 143.991 140.416L142.282 144.723C141.347 144.278 140.408 143.891 139.462 143.561C138.516 143.23 137.588 143.065 136.676 143.065Z" fill="#1C1C1C"/>
<path d="M97.25 139.015H102.018V151.08C102.018 151.673 102.007 152.328 101.984 153.045C101.972 153.763 101.95 154.47 101.916 155.165C101.893 155.848 101.87 156.446 101.847 156.959C101.824 157.472 101.802 157.813 101.779 157.984H101.881L113.417 139.015H119.757V164H115.041V152.003C115.041 151.365 115.052 150.67 115.075 149.918C115.097 149.166 115.126 148.437 115.16 147.73C115.206 147.024 115.246 146.415 115.28 145.902C115.314 145.378 115.337 145.03 115.348 144.859H115.211L103.625 164H97.25V139.015Z" fill="#1C1C1C"/>
<path d="M90.9438 164H85.646V154.344C84.1763 154.846 82.8319 155.227 81.6128 155.489C80.3937 155.751 79.1632 155.882 77.9214 155.882C75.5744 155.882 73.7458 155.318 72.4355 154.19C71.1253 153.051 70.4702 151.433 70.4702 149.337V139.015H75.751V147.833C75.751 149.041 76.0301 149.952 76.5884 150.567C77.1466 151.171 78.0923 151.473 79.4253 151.473C80.4051 151.473 81.3849 151.371 82.3647 151.166C83.3446 150.949 84.4383 150.63 85.646 150.208V139.015H90.9438V164Z" fill="#1C1C1C"/>
<path d="M39.1445 139.015H46.9204C50.2472 139.015 52.7651 139.482 54.4741 140.416C56.1831 141.35 57.0376 142.991 57.0376 145.338C57.0376 146.284 56.8838 147.138 56.5762 147.901C56.2799 148.665 55.847 149.291 55.2773 149.781C54.7077 150.271 54.0127 150.59 53.1924 150.738V150.909C54.0241 151.08 54.776 151.376 55.4482 151.798C56.1204 152.208 56.6559 152.812 57.0547 153.609C57.4648 154.396 57.6699 155.444 57.6699 156.754C57.6699 158.269 57.2996 159.568 56.5591 160.65C55.8185 161.733 54.759 162.564 53.3804 163.146C52.0132 163.715 50.384 164 48.4927 164H39.1445V139.015ZM44.4424 148.91H47.5186C49.0566 148.91 50.1219 148.67 50.7144 148.192C51.3068 147.702 51.603 146.984 51.603 146.039C51.603 145.082 51.2498 144.398 50.5435 143.988C49.8485 143.566 48.7433 143.355 47.228 143.355H44.4424V148.91ZM44.4424 153.114V159.625H47.8945C49.4896 159.625 50.6004 159.317 51.2271 158.702C51.8537 158.087 52.167 157.261 52.167 156.224C52.167 155.609 52.0303 155.068 51.7568 154.601C51.4834 154.133 51.022 153.769 50.3726 153.507C49.7345 153.245 48.8516 153.114 47.7236 153.114H44.4424Z" fill="#1C1C1C"/>
<path d="M245.077 104.015H249.845V116.08C249.845 116.673 249.834 117.328 249.811 118.045C249.8 118.763 249.777 119.47 249.743 120.165C249.72 120.848 249.697 121.446 249.674 121.959C249.652 122.472 249.629 122.813 249.606 122.984H249.708L261.244 104.015H267.584V129H262.868V117.003C262.868 116.365 262.879 115.67 262.902 114.918C262.925 114.166 262.953 113.437 262.987 112.73C263.033 112.024 263.073 111.415 263.107 110.902C263.141 110.378 263.164 110.03 263.175 109.859H263.039L251.452 129H245.077V104.015Z" fill="#1C1C1C"/>
<path d="M241.933 129H235.917L226.859 116.336V129H221.562V104.015H226.859V116.114L235.814 104.015H241.454L232.345 116.012L241.933 129Z" fill="#1C1C1C"/>
<path d="M192.748 104.015H197.516V116.08C197.516 116.673 197.505 117.328 197.482 118.045C197.471 118.763 197.448 119.47 197.414 120.165C197.391 120.848 197.368 121.446 197.345 121.959C197.322 122.472 197.3 122.813 197.277 122.984H197.379L208.915 104.015H215.255V129H210.539V117.003C210.539 116.365 210.55 115.67 210.573 114.918C210.596 114.166 210.624 113.437 210.658 112.73C210.704 112.024 210.744 111.415 210.778 110.902C210.812 110.378 210.835 110.03 210.846 109.859H210.709L199.123 129H192.748V104.015Z" fill="#1C1C1C"/>
<path d="M186.425 129H181.144V118.216H171.249V129H165.951V104.015H171.249V113.807H181.144V104.015H186.425V129Z" fill="#1C1C1C"/>
<path d="M155.321 129H150.023V108.424H143.239V104.015H162.106V108.424H155.321V129Z" fill="#1C1C1C"/>
<path d="M130.814 119.413L124.97 129H119.091L126.2 118.011C125.528 117.726 124.85 117.311 124.167 116.764C123.494 116.217 122.936 115.488 122.492 114.576C122.047 113.653 121.825 112.514 121.825 111.158C121.825 108.845 122.651 107.079 124.303 105.86C125.955 104.63 128.274 104.015 131.259 104.015H139.394V129H134.096V119.413H130.814ZM134.096 108.355H131.481C130.569 108.355 129.789 108.464 129.14 108.68C128.502 108.897 128.012 109.238 127.67 109.706C127.34 110.161 127.174 110.771 127.174 111.534C127.174 112.639 127.539 113.511 128.268 114.149C128.997 114.787 130.114 115.106 131.618 115.106H134.096V108.355Z" fill="#1C1C1C"/>
<path d="M99.9673 129L93.9517 109.398H93.7979C93.8206 109.865 93.8548 110.571 93.9004 111.517C93.9574 112.451 94.0086 113.448 94.0542 114.508C94.0998 115.567 94.1226 116.524 94.1226 117.379V129H89.3887V104.015H96.6006L102.514 123.121H102.616L108.888 104.015H116.1V129H111.161V117.174C111.161 116.388 111.173 115.482 111.195 114.457C111.229 113.431 111.269 112.457 111.315 111.534C111.361 110.6 111.395 109.899 111.417 109.432H111.264L104.821 129H99.9673Z" fill="#1C1C1C"/>
<path d="M80.519 129L78.7075 123.053H69.5986L67.7871 129H62.0791L70.8975 103.912H77.3745L86.2271 129H80.519ZM77.4429 118.609L75.6313 112.799C75.5174 112.411 75.3636 111.916 75.1699 111.312C74.9876 110.697 74.7996 110.076 74.606 109.449C74.4237 108.811 74.2756 108.259 74.1616 107.792C74.0477 108.259 73.8882 108.84 73.6831 109.535C73.4894 110.218 73.3014 110.868 73.1191 111.483C72.9368 112.098 72.8058 112.537 72.7261 112.799L70.9316 118.609H77.4429Z" fill="#1C1C1C"/>
<path d="M39.1445 129V104.015H58.9175V129H53.6367V108.424H44.4424V129H39.1445Z" fill="#1C1C1C"/>
</svg>
