<svg width="176" height="24" viewBox="0 0 176 24" fill="none" xmlns="http://www.w3.org/2000/svg">
<g clip-path="url(#clip0_10_326)">
<path d="M-10.2241 2.94075C-19.0734 5.64908 -23.9126 5.98216 -32.1328 2.94075V6.26544C-23.9126 9.98005 -19.0734 9.64665 -10.2241 6.26544C-2.04382 1.63589 2.77548 1.93014 11.6846 6.26544V2.94075C2.53412 -0.0113585 -2.25634 0.0209546 -10.2241 2.94075Z" fill="#006302"/>
<path d="M33.5933 2.94075C24.744 5.64908 19.9048 5.98216 11.6846 2.94075V6.26544C19.9048 9.98005 24.744 9.64665 33.5933 6.26544C41.7736 1.63589 46.5929 1.93014 55.502 6.26544V2.94075C46.3516 -0.0113585 41.5611 0.0209546 33.5933 2.94075Z" fill="#006302"/>
<path d="M77.4108 2.94075C68.5614 5.64908 63.7223 5.98216 55.502 2.94075V6.26544C63.7223 9.98005 68.5614 9.64665 77.4108 6.26544C85.591 1.63589 90.4103 1.93014 99.3195 6.26544V2.94075C90.169 -0.0113585 85.3785 0.0209546 77.4108 2.94075Z" fill="#006302"/>
<path d="M121.228 2.94075C112.379 5.64908 107.54 5.98216 99.3195 2.94075V6.26544C107.54 9.98005 112.379 9.64665 121.228 6.26544C129.408 1.63589 134.228 1.93014 143.137 6.26544V2.94075C133.986 -0.0113585 129.196 0.0209546 121.228 2.94075Z" fill="#006302"/>
<path d="M165.046 2.94075C156.196 5.64908 151.357 5.98216 143.137 2.94075V6.26544C151.357 9.98005 156.196 9.64665 165.046 6.26544C173.226 1.63589 178.045 1.93014 186.954 6.26544V2.94075C177.804 -0.0113585 173.013 0.0209546 165.046 2.94075Z" fill="#006302"/>
</g>
<g clip-path="url(#clip1_10_326)">
<path d="M-10.2241 10.1075C-19.0734 12.8158 -23.9126 13.1489 -32.1328 10.1075V13.4322C-23.9126 17.1468 -19.0734 16.8134 -10.2241 13.4322C-2.04382 8.80264 2.77548 9.09689 11.6846 13.4322V10.1075C2.53412 7.15539 -2.25634 7.1877 -10.2241 10.1075Z" fill="#006302"/>
<path d="M33.5933 10.1075C24.744 12.8158 19.9048 13.1489 11.6846 10.1075V13.4322C19.9048 17.1468 24.744 16.8134 33.5933 13.4322C41.7736 8.80264 46.5929 9.09689 55.502 13.4322V10.1075C46.3516 7.15539 41.5611 7.1877 33.5933 10.1075Z" fill="#006302"/>
<path d="M77.4108 10.1075C68.5614 12.8158 63.7223 13.1489 55.502 10.1075V13.4322C63.7223 17.1468 68.5614 16.8134 77.4108 13.4322C85.591 8.80264 90.4103 9.09689 99.3195 13.4322V10.1075C90.169 7.15539 85.3785 7.1877 77.4108 10.1075Z" fill="#006302"/>
<path d="M121.228 10.1075C112.379 12.8158 107.54 13.1489 99.3195 10.1075V13.4322C107.54 17.1468 112.379 16.8134 121.228 13.4322C129.408 8.80264 134.228 9.09689 143.137 13.4322V10.1075C133.986 7.15539 129.196 7.1877 121.228 10.1075Z" fill="#006302"/>
<path d="M165.046 10.1075C156.196 12.8158 151.357 13.1489 143.137 10.1075V13.4322C151.357 17.1468 156.196 16.8134 165.046 13.4322C173.226 8.80264 178.045 9.09689 186.954 13.4322V10.1075C177.804 7.15539 173.013 7.1877 165.046 10.1075Z" fill="#006302"/>
</g>
<g clip-path="url(#clip2_10_326)">
<path d="M-10.2241 17.274C-19.0734 19.9823 -23.9126 20.3154 -32.1328 17.274V20.5987C-23.9126 24.3133 -19.0734 23.9799 -10.2241 20.5987C-2.04382 15.9691 2.77548 16.2634 11.6846 20.5987V17.274C2.53412 14.3219 -2.25634 14.3542 -10.2241 17.274Z" fill="#006302"/>
<path d="M33.5933 17.274C24.744 19.9823 19.9048 20.3154 11.6846 17.274V20.5987C19.9048 24.3133 24.744 23.9799 33.5933 20.5987C41.7736 15.9691 46.5929 16.2634 55.502 20.5987V17.274C46.3516 14.3219 41.5611 14.3542 33.5933 17.274Z" fill="#006302"/>
<path d="M77.4108 17.274C68.5614 19.9823 63.7223 20.3154 55.502 17.274V20.5987C63.7223 24.3133 68.5614 23.9799 77.4108 20.5987C85.591 15.9691 90.4103 16.2634 99.3195 20.5987V17.274C90.169 14.3219 85.3785 14.3542 77.4108 17.274Z" fill="#006302"/>
<path d="M121.228 17.274C112.379 19.9823 107.54 20.3154 99.3195 17.274V20.5987C107.54 24.3133 112.379 23.9799 121.228 20.5987C129.408 15.9691 134.228 16.2634 143.137 20.5987V17.274C133.986 14.3219 129.196 14.3542 121.228 17.274Z" fill="#006302"/>
<path d="M165.046 17.274C156.196 19.9823 151.357 20.3154 143.137 17.274V20.5987C151.357 24.3133 156.196 23.9799 165.046 20.5987C173.226 15.9691 178.045 16.2634 186.954 20.5987V17.274C177.804 14.3219 173.013 14.3542 165.046 17.274Z" fill="#006302"/>
</g>
<defs>
<clipPath id="clip0_10_326">
<rect width="176" height="9.66667" fill="white"/>
</clipPath>
<clipPath id="clip1_10_326">
<rect width="176" height="9.66667" fill="white" transform="translate(0 7.16675)"/>
</clipPath>
<clipPath id="clip2_10_326">
<rect width="176" height="9.66667" fill="white" transform="translate(0 14.3333)"/>
</clipPath>
</defs>
</svg>
